<?xml version="1.0" encoding="UTF-8" standalone="no" ?>
<!DOCTYPE svg PUBLIC "-//W3C//DTD SVG 1.1//EN" "http://www.w3.org/Graphics/SVG/1.1/DTD/svg11.dtd">
<svg xmlns="http://www.w3.org/2000/svg" xmlns:xlink="http://www.w3.org/1999/xlink" version="1.1" width="1050" height="720" viewBox="0 0 1050 720" xml:space="preserve">
<desc>Created with Fabric.js 4.6.0</desc>
<defs>
</defs>
<g transform="matrix(1 0 0 1 533.52 160.47)" id="MiCC_EbkLEPCHMCa2Z7Wo"  >
<path style="stroke: none; stroke-width: 1; stroke-dasharray: none; stroke-linecap: butt; stroke-dashoffset: 0; stroke-linejoin: miter; stroke-miterlimit: 4; fill: rgb(253,118,77); fill-rule: evenodd; opacity: 1;" vector-effect="non-scaling-stroke"  transform=" translate(-519.5, -159.63)" d="M 750.5 224.5 C 749.25 224.423 748.417 223.756 748 222.5 C 747.3 224.032 746.134 225.032 744.5 225.5 C 743.821 223.875 742.655 222.542 741 221.5 C 739.7 222.707 738.2 223.374 736.5 223.5 C 735.299 219.737 733.799 216.07 732 212.5 C 718.672 192.574 700.172 180.241 676.5 175.5 C 675.167 172.5 673.833 169.5 672.5 166.5 C 674.543 165.771 676.543 166.271 678.5 168 C 681.482 168.498 684.482 168.665 687.5 168.5 C 685.286 153.708 680.453 139.708 673 126.5 C 657.934 98.7673 636.768 76.934 609.5 61 C 596.956 53.444 583.789 47.2774 570 42.5 C 569.235 42.5699 568.735 42.9033 568.5 43.5 C 567.566 42.4324 567.232 41.099 567.5 39.5 C 570.695 41.0685 574.028 41.9018 577.5 42 C 552.748 31.9749 527.415 29.8083 501.5 35.5 C 456.767 44.0305 419.267 65.3638 389 99.5 C 374.716 117.733 364.383 138.067 358 160.5 C 357.502 163.482 357.335 166.482 357.5 169.5 C 363.052 167.872 368.718 166.872 374.5 166.5 C 374.741 168.898 374.074 170.898 372.5 172.5 C 354.119 176.023 337.786 183.857 323.5 196 C 312.385 207.064 305.052 220.23 301.5 235.5 C 300.833 235.5 300.5 235.833 300.5 236.5 C 298.175 237.655 297.008 239.655 297 242.5 C 296.333 257.167 296.333 271.833 297 286.5 C 297.725 291.077 298.892 295.41 300.5 299.5 C 300.414 300.496 300.748 301.329 301.5 302 C 300.027 302.71 299.36 303.876 299.5 305.5 C 298.069 304.097 296.902 302.431 296 300.5 C 286.005 272.428 286.005 244.428 296 216.5 C 299.27 210.236 302.936 204.236 307 198.5 C 313.832 191.335 320.999 184.502 328.5 178 C 343.114 100.061 387.781 48.0612 462.5 22 C 529.808 3.91949 591.142 15.5862 646.5 57 C 684.476 89.4573 707.476 130.291 715.5 179.5 C 719.004 181.418 722.337 183.584 725.5 186 C 734.811 195.323 742.644 205.823 749 217.5 C 749.977 219.74 750.477 222.073 750.5 224.5 Z" stroke-linecap="round" />
</g>
<g transform="matrix(1 0 0 1 689.52 28.34)" id="fEgK97Q0Yjj2xhLKxxQXp"  >
<path style="stroke: none; stroke-width: 1; stroke-dasharray: none; stroke-linecap: butt; stroke-dashoffset: 0; stroke-linejoin: miter; stroke-miterlimit: 4; fill: rgb(254,170,24); fill-rule: evenodd; opacity: 1;" vector-effect="non-scaling-stroke"  transform=" translate(-675.5, -27.5)" d="M 676.5 45.5 C 675.29 45.9321 674.29 46.5987 673.5 47.5 C 670.578 48.6493 667.578 49.6493 664.5 50.5 C 663.804 46.5296 663.637 42.5296 664 38.5 C 659.867 33.3656 655.367 28.5323 650.5 24 C 656.927 22.8831 663.261 21.5497 669.5 20 C 671.572 16.7977 673.072 13.2977 674 9.5 C 675.041 7.41478 676.541 5.74811 678.5 4.5 C 681.141 9.86878 683.474 15.3688 685.5 21 C 690.533 21.171 695.533 21.671 700.5 22.5 C 696.431 26.3992 692.931 30.7326 690 35.5 C 689.501 39.4862 689.334 43.4862 689.5 47.5 C 685.636 46.8436 681.803 45.8436 678 44.5 C 677.235 44.5699 676.735 44.9033 676.5 45.5 Z" stroke-linecap="round" />
</g>
<g transform="matrix(1 0 0 1 392.52 28.85)" id="2RrUNpDQq1bnrxzZRws94"  >
<path style="stroke: none; stroke-width: 1; stroke-dasharray: none; stroke-linecap: butt; stroke-dashoffset: 0; stroke-linejoin: miter; stroke-miterlimit: 4; fill: rgb(252,172,28); fill-rule: evenodd; opacity: 1;" vector-effect="non-scaling-stroke"  transform=" translate(-378.5, -28.01)" d="M 375.5 4.5 C 377.39 4.2965 378.89 4.96317 380 6.5 C 381.945 11.3647 384.445 15.8647 387.5 20 C 391.833 20.3333 396.167 20.6667 400.5 21 C 401.428 21.3879 402.095 22.0546 402.5 23 C 399.457 26.9074 396.291 30.7408 393 34.5 C 392.501 40.1569 392.334 45.8236 392.5 51.5 C 391.127 51.6567 389.793 51.49 388.5 51 C 384.9 48.9522 381.4 46.7855 378 44.5 C 375.97 46.8641 373.637 48.8641 371 50.5 C 368.677 48.848 366.344 47.1813 364 45.5 C 363.802 42.4215 364.635 39.5882 366.5 37 C 362.373 33.038 358.373 28.8714 354.5 24.5 C 359.815 21.9019 365.481 20.5686 371.5 20.5 C 372.504 15.1524 373.837 9.81902 375.5 4.5 Z" stroke-linecap="round" />
</g>
<g transform="matrix(1 0 0 1 553.52 38.04)" id="CiZyzDeyIVPDVAO1H9SyM"  >
<path style="stroke: none; stroke-width: 1; stroke-dasharray: none; stroke-linecap: butt; stroke-dashoffset: 0; stroke-linejoin: miter; stroke-miterlimit: 4; fill: rgb(245,179,167); fill-rule: evenodd; opacity: 1;" vector-effect="non-scaling-stroke"  transform=" translate(-539.5, -37.2)" d="M 567.5 39.5 C 546.687 33.6075 525.687 32.6075 504.5 36.5 C 503.791 35.596 502.791 35.2627 501.5 35.5 C 527.415 29.8083 552.748 31.9749 577.5 42 C 574.028 41.9018 570.695 41.0685 567.5 39.5 Z" stroke-linecap="round" />
</g>
<g transform="matrix(1 0 0 1 444.99 103.3)" id="yPXr62l_LPYLpnVshDDKP"  >
<path style="stroke: none; stroke-width: 1; stroke-dasharray: none; stroke-linecap: butt; stroke-dashoffset: 0; stroke-linejoin: miter; stroke-miterlimit: 4; fill: rgb(253,251,250); fill-rule: evenodd; opacity: 1;" vector-effect="non-scaling-stroke"  transform=" translate(-430.97, -102.46)" d="M 501.5 35.5 C 502.791 35.2627 503.791 35.596 504.5 36.5 C 496.578 38.8631 488.744 41.5297 481 44.5 C 480.251 51.5033 481.418 58.17 484.5 64.5 C 432.859 82.1339 396.192 116.134 374.5 166.5 C 368.718 166.872 363.052 167.872 357.5 169.5 C 357.335 166.482 357.502 163.482 358 160.5 C 364.383 138.067 374.716 117.733 389 99.5 C 419.267 65.3638 456.767 44.0305 501.5 35.5 Z" stroke-linecap="round" />
</g>
<g transform="matrix(1 0 0 1 541.23 50.41)" id="FqRDL_DYJweXVd4NFEYu2"  >
<path style="stroke: none; stroke-width: 1; stroke-dasharray: none; stroke-linecap: butt; stroke-dashoffset: 0; stroke-linejoin: miter; stroke-miterlimit: 4; fill: rgb(250,109,68); fill-rule: evenodd; opacity: 1;" vector-effect="non-scaling-stroke"  transform=" translate(-527.21, -49.57)" d="M 567.5 39.5 C 567.232 41.099 567.566 42.4324 568.5 43.5 C 573.855 46.0343 575.021 50.0343 572 55.5 C 570.144 58.5557 568.311 61.5557 566.5 64.5 C 544.025 60.5148 521.692 60.5148 499.5 64.5 C 494.412 65.1054 489.412 65.1054 484.5 64.5 C 481.418 58.17 480.251 51.5033 481 44.5 C 488.744 41.5297 496.578 38.8631 504.5 36.5 C 525.687 32.6075 546.687 33.6075 567.5 39.5 Z" stroke-linecap="round" />
</g>
<g transform="matrix(1 0 0 1 641.02 106.37)" id="tXv3SYIAb3OD261PQLDN_"  >
<path style="stroke: none; stroke-width: 1; stroke-dasharray: none; stroke-linecap: butt; stroke-dashoffset: 0; stroke-linejoin: miter; stroke-miterlimit: 4; fill: rgb(252,251,250); fill-rule: evenodd; opacity: 1;" vector-effect="non-scaling-stroke"  transform=" translate(-627, -105.53)" d="M 568.5 43.5 C 568.735 42.9033 569.235 42.5699 570 42.5 C 583.789 47.2774 596.956 53.444 609.5 61 C 636.768 76.934 657.934 98.7673 673 126.5 C 680.453 139.708 685.286 153.708 687.5 168.5 C 684.482 168.665 681.482 168.498 678.5 168 C 676.543 166.271 674.543 165.771 672.5 166.5 C 652.649 116.576 617.316 82.9096 566.5 65.5 C 566.5 65.1667 566.5 64.8333 566.5 64.5 C 568.311 61.5557 570.144 58.5557 572 55.5 C 575.021 50.0343 573.855 46.0343 568.5 43.5 Z" stroke-linecap="round" />
</g>
<g transform="matrix(1 0 0 1 692.02 53.87)" id="6n0k__63CGOm4z_lSr-W5"  >
<path style="stroke: none; stroke-width: 1; stroke-dasharray: none; stroke-linecap: butt; stroke-dashoffset: 0; stroke-linejoin: miter; stroke-miterlimit: 4; fill: rgb(252,228,196); fill-rule: evenodd; opacity: 1;" vector-effect="non-scaling-stroke"  transform=" translate(-678, -53.03)" d="M 676.5 45.5 C 678.432 49.1257 680.432 52.7923 682.5 56.5 C 681.125 59.5471 678.792 60.8804 675.5 60.5 C 675.666 56.4862 675.499 52.4862 675 48.5 C 674.617 47.944 674.117 47.6107 673.5 47.5 C 674.29 46.5987 675.29 45.9321 676.5 45.5 Z" stroke-linecap="round" />
</g>
<g transform="matrix(1 0 0 1 547.02 64.35)" id="1nmWhiiWwU7CjJeFsQXAo"  >
<path style="stroke: none; stroke-width: 1; stroke-dasharray: none; stroke-linecap: butt; stroke-dashoffset: 0; stroke-linejoin: miter; stroke-miterlimit: 4; fill: rgb(89,199,47); fill-rule: evenodd; opacity: 1;" vector-effect="non-scaling-stroke"  transform=" translate(-533, -63.51)" d="M 566.5 64.5 C 566.5 64.8333 566.5 65.1667 566.5 65.5 C 544.193 63.3711 521.86 63.0378 499.5 64.5 C 521.692 60.5148 544.025 60.5148 566.5 64.5 Z" stroke-linecap="round" />
</g>
<g transform="matrix(1 0 0 1 537.49 195.8)" id="WTNa87SN5LIhReW52qsxV"  >
<path style="stroke: none; stroke-width: 1; stroke-dasharray: none; stroke-linecap: butt; stroke-dashoffset: 0; stroke-linejoin: miter; stroke-miterlimit: 4; fill: rgb(115,246,64); fill-rule: evenodd; opacity: 1;" vector-effect="non-scaling-stroke"  transform=" translate(-523.47, -194.96)" d="M 566.5 65.5 C 617.316 82.9096 652.649 116.576 672.5 166.5 C 673.833 169.5 675.167 172.5 676.5 175.5 C 678.938 181.808 680.938 188.141 682.5 194.5 C 683.83 204.128 684.83 213.795 685.5 223.5 C 684.252 235.437 683.085 247.437 682 259.5 C 680.211 262.741 678.711 266.074 677.5 269.5 C 667.603 283.562 655.27 295.062 640.5 304 C 619.397 313.777 597.397 320.777 574.5 325 C 570.745 325.755 567.078 325.589 563.5 324.5 C 564.26 308.986 562.093 293.986 557 279.5 C 555.587 276.339 553.92 273.339 552 270.5 C 548.962 267.797 546.295 264.797 544 261.5 C 541.228 259.239 538.062 257.739 534.5 257 C 521.573 253.68 511.073 257.18 503 267.5 C 499.905 271.589 497.239 275.923 495 280.5 C 492.821 287.882 490.988 295.215 489.5 302.5 C 488.566 303.568 488.232 304.901 488.5 306.5 C 487.51 312.645 487.177 318.978 487.5 325.5 C 454.626 328.76 423.959 322.26 395.5 306 C 390.998 302.33 386.665 298.497 382.5 294.5 C 377.054 287.884 371.887 281.218 367 274.5 C 366.583 275.756 365.75 276.423 364.5 276.5 C 364.722 270.657 363.889 264.99 362 259.5 C 361.5 246.838 361.333 234.171 361.5 221.5 C 362.043 212.507 363.376 203.507 365.5 194.5 C 367.84 187.157 370.174 179.824 372.5 172.5 C 374.074 170.898 374.741 168.898 374.5 166.5 C 396.192 116.134 432.859 82.1339 484.5 64.5 C 489.412 65.1054 494.412 65.1054 499.5 64.5 C 521.86 63.0378 544.193 63.3711 566.5 65.5 Z" stroke-linecap="round" />
</g>
<g transform="matrix(1 0 0 1 603.55 112.69)" id="aNm7G_qOg-AOgMV1qFuRq"  >
<path style="stroke: none; stroke-width: 1; stroke-dasharray: none; stroke-linecap: butt; stroke-dashoffset: 0; stroke-linejoin: miter; stroke-miterlimit: 4; fill: rgb(251,253,251); fill-rule: evenodd; opacity: 1;" vector-effect="non-scaling-stroke"  transform=" translate(-589.53, -111.85)" d="M 626.5 145.5 C 618.086 142.983 609.419 141.65 600.5 141.5 C 586.089 130.943 571.756 120.109 557.5 109 C 553.298 105.133 549.465 100.967 546 96.5 C 543.104 90.0322 544.604 84.8655 550.5 81 C 557.814 77.1957 565.481 76.529 573.5 79 C 582.833 85 592.167 91 601.5 97 C 609.303 103.802 616.803 110.969 624 118.5 C 629.389 125.879 632.889 134.045 634.5 143 C 634.415 144.107 634.081 145.107 633.5 146 C 631.153 146.334 628.819 146.167 626.5 145.5 Z" stroke-linecap="round" />
</g>
<g transform="matrix(1 0 0 1 462.18 207.84)" id="b8c8ki8h0ph8FxqUZbulj"  >
<path style="stroke: none; stroke-width: 1; stroke-dasharray: none; stroke-linecap: butt; stroke-dashoffset: 0; stroke-linejoin: miter; stroke-miterlimit: 4; fill: rgb(2,3,2); fill-rule: evenodd; opacity: 1;" vector-effect="non-scaling-stroke"  transform=" translate(-448.16, -207)" d="M 460.5 270.5 C 454.529 271.241 448.529 271.575 442.5 271.5 C 411.612 266.768 392.445 249.102 385 218.5 C 382.309 187.565 394.142 164.065 420.5 148 C 447.292 137.778 471.625 141.778 493.5 160 C 511.083 180.358 515.917 203.525 508 229.5 C 502.122 244.04 492.622 255.54 479.5 264 C 475.658 264.721 472.324 266.387 469.5 269 C 466.568 269.953 463.568 270.453 460.5 270.5 Z" stroke-linecap="round" />
</g>
<g transform="matrix(1 0 0 1 617.43 207.22)" id="ygw2kEE8CKFwwmRp-w-IQ"  >
<path style="stroke: none; stroke-width: 1; stroke-dasharray: none; stroke-linecap: butt; stroke-dashoffset: 0; stroke-linejoin: miter; stroke-miterlimit: 4; fill: rgb(3,3,3); fill-rule: evenodd; opacity: 1;" vector-effect="non-scaling-stroke"  transform=" translate(-603.41, -206.38)" d="M 600.5 141.5 C 609.419 141.65 618.086 142.983 626.5 145.5 C 633.438 149.31 640.104 153.643 646.5 158.5 C 646.858 162.367 648.691 165.367 652 167.5 C 657.712 178.575 662.545 189.909 666.5 201.5 C 666.492 215.567 663.492 228.901 657.5 241.5 C 636.42 269.687 609.086 277.854 575.5 266 C 550.41 251.999 538.743 230.499 540.5 201.5 C 541.617 197.705 542.283 193.705 542.5 189.5 C 547.8 169.697 559.8 155.531 578.5 147 C 585.962 145.134 593.295 143.301 600.5 141.5 Z" stroke-linecap="round" />
</g>
<g transform="matrix(1 0 0 1 635.61 185.02)" id="KQqCvSC-BZ-3T_UkwO9qM"  >
<path style="stroke: none; stroke-width: 1; stroke-dasharray: none; stroke-linecap: butt; stroke-dashoffset: 0; stroke-linejoin: miter; stroke-miterlimit: 4; fill: rgb(249,249,249); fill-rule: evenodd; opacity: 1;" vector-effect="non-scaling-stroke"  transform=" translate(-621.59, -184.18)" d="M 641.5 179.5 C 641.5 180.167 641.5 180.833 641.5 181.5 C 641.648 198.952 632.981 206.452 615.5 204 C 604.859 198.89 600.359 190.39 602 178.5 C 604.639 174.361 607.472 170.361 610.5 166.5 C 624.948 160.548 635.281 164.881 641.5 179.5 Z" stroke-linecap="round" />
</g>
<g transform="matrix(1 0 0 1 480.29 184.99)" id="FJVURoKD3a2XZy980pILn"  >
<path style="stroke: none; stroke-width: 1; stroke-dasharray: none; stroke-linecap: butt; stroke-dashoffset: 0; stroke-linejoin: miter; stroke-miterlimit: 4; fill: rgb(247,248,247); fill-rule: evenodd; opacity: 1;" vector-effect="non-scaling-stroke"  transform=" translate(-466.27, -184.15)" d="M 457.5 164.5 C 471.078 161.938 480.578 166.938 486 179.5 C 488.464 198.37 480.297 206.536 461.5 204 C 448.763 199.185 443.93 190.019 447 176.5 C 448.936 171.068 452.436 167.068 457.5 164.5 Z" stroke-linecap="round" />
</g>
<g transform="matrix(1 0 0 1 658.46 181.34)" id="d5yKA2pRf0pjqVvME068y"  >
<path style="stroke: none; stroke-width: 1; stroke-dasharray: none; stroke-linecap: butt; stroke-dashoffset: 0; stroke-linejoin: miter; stroke-miterlimit: 4; fill: rgb(103,130,61); fill-rule: evenodd; opacity: 1;" vector-effect="non-scaling-stroke"  transform=" translate(-644.44, -180.5)" d="M 641.5 179.5 C 649.348 180.749 649.348 181.415 641.5 181.5 C 641.5 180.833 641.5 180.167 641.5 179.5 Z" stroke-linecap="round" />
</g>
<g transform="matrix(1 0 0 1 670.52 180.84)" id="NzHeMmrscS035xKEBauHN"  >
<path style="stroke: none; stroke-width: 1; stroke-dasharray: none; stroke-linecap: butt; stroke-dashoffset: 0; stroke-linejoin: miter; stroke-miterlimit: 4; fill: rgb(32,44,39); fill-rule: evenodd; opacity: 1;" vector-effect="non-scaling-stroke"  transform=" translate(-656.5, -180)" d="M 646.5 158.5 C 652.282 163.617 656.949 169.617 660.5 176.5 C 664.521 184.259 666.521 192.592 666.5 201.5 C 662.545 189.909 657.712 178.575 652 167.5 C 648.691 165.367 646.858 162.367 646.5 158.5 Z" stroke-linecap="round" />
</g>
<g transform="matrix(1 0 0 1 555.48 196.34)" id="kRDOgPhzKjk2rojCGzQgq"  >
<path style="stroke: none; stroke-width: 1; stroke-dasharray: none; stroke-linecap: butt; stroke-dashoffset: 0; stroke-linejoin: miter; stroke-miterlimit: 4; fill: rgb(49,106,28); fill-rule: evenodd; opacity: 1;" vector-effect="non-scaling-stroke"  transform=" translate(-541.46, -195.5)" d="M 542.5 189.5 C 542.283 193.705 541.617 197.705 540.5 201.5 C 540.198 197.21 540.864 193.21 542.5 189.5 Z" stroke-linecap="round" />
</g>
<g transform="matrix(1 0 0 1 721 206.34)" id="AdX-KItZigFx0jNHpVONY"  >
<path style="stroke: none; stroke-width: 1; stroke-dasharray: none; stroke-linecap: butt; stroke-dashoffset: 0; stroke-linejoin: miter; stroke-miterlimit: 4; fill: rgb(249,131,112); fill-rule: evenodd; opacity: 1;" vector-effect="non-scaling-stroke"  transform=" translate(-706.98, -205.5)" d="M 676.5 175.5 C 700.172 180.241 718.672 192.574 732 212.5 C 733.799 216.07 735.299 219.737 736.5 223.5 C 737.596 227.413 737.762 231.413 737 235.5 C 725.488 224.665 712.988 215.165 699.5 207 C 694.485 201.838 688.818 197.671 682.5 194.5 C 680.938 188.141 678.938 181.808 676.5 175.5 Z" stroke-linecap="round" />
</g>
<g transform="matrix(1 0 0 1 351 205.84)" id="NXyCb-0MosKKyDe7ujsTM"  >
<path style="stroke: none; stroke-width: 1; stroke-dasharray: none; stroke-linecap: butt; stroke-dashoffset: 0; stroke-linejoin: miter; stroke-miterlimit: 4; fill: rgb(248,132,111); fill-rule: evenodd; opacity: 1;" vector-effect="non-scaling-stroke"  transform=" translate(-336.98, -205)" d="M 372.5 172.5 C 370.174 179.824 367.84 187.157 365.5 194.5 C 362.092 195.367 358.758 196.533 355.5 198 C 349.833 201.667 344.167 205.333 338.5 209 C 330.13 217.038 321.464 224.705 312.5 232 C 309.196 234.212 305.696 236.045 302 237.5 C 301.536 236.906 301.369 236.239 301.5 235.5 C 305.052 220.23 312.385 207.064 323.5 196 C 337.786 183.857 354.119 176.023 372.5 172.5 Z" stroke-linecap="round" />
</g>
<g transform="matrix(1 0 0 1 452.81 229.25)" id="GETKHLFiNmuY29u0rhLMq"  >
<path style="stroke: none; stroke-width: 1; stroke-dasharray: none; stroke-linecap: butt; stroke-dashoffset: 0; stroke-linejoin: miter; stroke-miterlimit: 4; fill: rgb(247,247,247); fill-rule: evenodd; opacity: 1;" vector-effect="non-scaling-stroke"  transform=" translate(-438.79, -228.41)" d="M 431.5 209.5 C 437.164 208.888 441.998 210.554 446 214.5 C 446.495 216.473 446.662 218.473 446.5 220.5 C 451.093 220.547 454.593 222.547 457 226.5 C 457.837 230.295 457.504 233.961 456 237.5 C 450.093 245.54 442.26 248.706 432.5 247 C 421.059 240.59 417.559 231.09 422 218.5 C 425.062 215.268 428.229 212.268 431.5 209.5 Z" stroke-linecap="round" />
</g>
<g transform="matrix(1 0 0 1 609.15 228.83)" id="mAxsufjB2z9cFKXk01AX5"  >
<path style="stroke: none; stroke-width: 1; stroke-dasharray: none; stroke-linecap: butt; stroke-dashoffset: 0; stroke-linejoin: miter; stroke-miterlimit: 4; fill: rgb(247,247,247); fill-rule: evenodd; opacity: 1;" vector-effect="non-scaling-stroke"  transform=" translate(-595.13, -227.99)" d="M 590.5 209.5 C 601.622 208.152 609.122 212.819 613 223.5 C 613.561 233.211 609.727 240.711 601.5 246 C 590.034 248.518 582.2 244.352 578 233.5 C 575.973 225.935 577.806 219.602 583.5 214.5 C 585.724 212.566 588.058 210.899 590.5 209.5 Z" stroke-linecap="round" />
</g>
<g transform="matrix(1 0 0 1 677.8 209.84)" id="yAtZmi78nP1yaS-9VRn7F"  >
<path style="stroke: none; stroke-width: 1; stroke-dasharray: none; stroke-linecap: butt; stroke-dashoffset: 0; stroke-linejoin: miter; stroke-miterlimit: 4; fill: rgb(81,203,49); fill-rule: evenodd; opacity: 1;" vector-effect="non-scaling-stroke"  transform=" translate(-663.78, -209)" d="M 660.5 176.5 C 662.747 179.277 664.913 182.277 667 185.5 C 672.554 204.479 670.554 222.479 661 239.5 C 659.887 240.305 658.721 240.972 657.5 241.5 C 663.492 228.901 666.492 215.567 666.5 201.5 C 666.521 192.592 664.521 184.259 660.5 176.5 Z" stroke-linecap="round" />
</g>
<g transform="matrix(1 0 0 1 733.52 260.34)" id="M50gXCIJFZZfl5nMlpeAE"  >
<path style="stroke: none; stroke-width: 1; stroke-dasharray: none; stroke-linecap: butt; stroke-dashoffset: 0; stroke-linejoin: miter; stroke-miterlimit: 4; fill: rgb(247,117,77); fill-rule: evenodd; opacity: 1;" vector-effect="non-scaling-stroke"  transform=" translate(-719.5, -259.5)" d="M 682.5 194.5 C 688.818 197.671 694.485 201.838 699.5 207 C 712.988 215.165 725.488 224.665 737 235.5 C 737.762 231.413 737.596 227.413 736.5 223.5 C 738.2 223.374 739.7 222.707 741 221.5 C 742.655 222.542 743.821 223.875 744.5 225.5 C 746.134 225.032 747.3 224.032 748 222.5 C 748.417 223.756 749.25 224.423 750.5 224.5 C 753.462 230.733 755.462 237.399 756.5 244.5 C 755.03 269.41 745.363 290.577 727.5 308 C 716.66 316.752 704.326 322.252 690.5 324.5 C 690.682 308.785 691.515 293.118 693 277.5 C 693.667 263.833 693.667 250.167 693 236.5 C 691.54 231.531 690.206 226.531 689 221.5 C 688.581 220.328 687.915 219.328 687 218.5 C 686.506 220.134 686.34 221.801 686.5 223.5 C 686.167 223.5 685.833 223.5 685.5 223.5 C 684.83 213.795 683.83 204.128 682.5 194.5 Z" stroke-linecap="round" />
</g>
<g transform="matrix(1 0 0 1 373.07 254.32)" id="Ktcu-rymisW_PtwrEug4r"  >
<path style="stroke: none; stroke-width: 1; stroke-dasharray: none; stroke-linecap: butt; stroke-dashoffset: 0; stroke-linejoin: miter; stroke-miterlimit: 4; fill: rgb(241,65,30); fill-rule: evenodd; opacity: 1;" vector-effect="non-scaling-stroke"  transform=" translate(-359.05, -253.48)" d="M 361.5 221.5 C 361.333 234.171 361.5 246.838 362 259.5 C 363.889 264.99 364.722 270.657 364.5 276.5 C 364.5 277.5 364.5 278.5 364.5 279.5 C 364.216 281.877 364.216 284.044 364.5 286 C 363.256 286.456 362.423 285.956 362 284.5 C 361.692 285.308 361.192 285.975 360.5 286.5 C 360.167 285.833 359.833 285.167 359.5 284.5 C 357.717 285.348 357.217 286.681 358 288.5 C 359.793 287.619 360.46 288.286 360 290.5 C 358.644 289.62 357.144 289.286 355.5 289.5 C 355.795 287.265 355.461 285.265 354.5 283.5 C 352.523 261.388 353.69 239.388 358 217.5 C 359.011 216.663 360.178 216.33 361.5 216.5 C 361.5 218.167 361.5 219.833 361.5 221.5 Z" stroke-linecap="round" />
</g>
<g transform="matrix(1 0 0 1 540.15 314.78)" id="Fbt_BwtO-MIAQ1-0wzloz"  >
<path style="stroke: none; stroke-width: 1; stroke-dasharray: none; stroke-linecap: butt; stroke-dashoffset: 0; stroke-linejoin: miter; stroke-miterlimit: 4; fill: rgb(4,4,3); fill-rule: evenodd; opacity: 1;" vector-effect="non-scaling-stroke"  transform=" translate(-526.13, -313.94)" d="M 563.5 324.5 C 562.347 332.527 560.68 340.527 558.5 348.5 C 553.959 358.71 546.626 366.377 536.5 371.5 C 520.266 374.034 507.766 368.368 499 354.5 C 490.053 338.346 486.886 321.013 489.5 302.5 C 490.988 295.215 492.821 287.882 495 280.5 C 497.239 275.923 499.905 271.589 503 267.5 C 511.073 257.18 521.573 253.68 534.5 257 C 538.062 257.739 541.228 259.239 544 261.5 C 546.295 264.797 548.962 267.797 552 270.5 C 553.92 273.339 555.587 276.339 557 279.5 C 562.093 293.986 564.26 308.986 563.5 324.5 Z" stroke-linecap="round" />
</g>
<g transform="matrix(1 0 0 1 346.58 260.35)" id="XqKUu1daodXfCXZmv46D-"  >
<path style="stroke: none; stroke-width: 1; stroke-dasharray: none; stroke-linecap: butt; stroke-dashoffset: 0; stroke-linejoin: miter; stroke-miterlimit: 4; fill: rgb(246,118,77); fill-rule: evenodd; opacity: 1;" vector-effect="non-scaling-stroke"  transform=" translate(-332.56, -259.51)" d="M 365.5 194.5 C 363.376 203.507 362.043 212.507 361.5 221.5 C 361.5 219.833 361.5 218.167 361.5 216.5 C 360.178 216.33 359.011 216.663 358 217.5 C 353.69 239.388 352.523 261.388 354.5 283.5 C 355.941 296.035 358.274 308.368 361.5 320.5 C 359.695 323.403 357.029 324.736 353.5 324.5 C 336.637 320.818 322.137 312.818 310 300.5 C 304.943 293.19 301.61 285.19 300 276.5 C 299.361 263.154 299.527 249.821 300.5 236.5 C 300.5 235.833 300.833 235.5 301.5 235.5 C 301.369 236.239 301.536 236.906 302 237.5 C 305.696 236.045 309.196 234.212 312.5 232 C 321.464 224.705 330.13 217.038 338.5 209 C 344.167 205.333 349.833 201.667 355.5 198 C 358.758 196.533 362.092 195.367 365.5 194.5 Z" stroke-linecap="round" />
</g>
<g transform="matrix(1 0 0 1 465.52 272.35)" id="ACiDupXbWbi-J2_xFyrNy"  >
<path style="stroke: none; stroke-width: 1; stroke-dasharray: none; stroke-linecap: butt; stroke-dashoffset: 0; stroke-linejoin: miter; stroke-miterlimit: 4; fill: rgb(69,152,36); fill-rule: evenodd; opacity: 1;" vector-effect="non-scaling-stroke"  transform=" translate(-451.5, -271.51)" d="M 460.5 270.5 C 457.114 271.97 453.447 272.637 449.5 272.5 C 446.975 272.497 444.641 272.163 442.5 271.5 C 448.529 271.575 454.529 271.241 460.5 270.5 Z" stroke-linecap="round" />
</g>
<g transform="matrix(1 0 0 1 630.5 315.84)" id="-WAgYoFSsrFXscCT9zTEi"  >
<path style="stroke: none; stroke-width: 1; stroke-dasharray: none; stroke-linecap: butt; stroke-dashoffset: 0; stroke-linejoin: miter; stroke-miterlimit: 4; fill: rgb(84,235,14); fill-rule: evenodd; opacity: 1;" vector-effect="non-scaling-stroke"  transform=" translate(-616.48, -315)" d="M 677.5 269.5 C 674.694 276.443 670.861 282.776 666 288.5 C 660.148 295.017 653.648 300.85 646.5 306 C 623.877 333.327 595.377 351.493 561 360.5 C 559.417 359.311 557.584 358.478 555.5 358 C 555.295 356.324 556.128 354.824 558 353.5 C 558.718 354.451 559.551 354.617 560.5 354 C 559.536 352.275 558.869 350.441 558.5 348.5 C 560.68 340.527 562.347 332.527 563.5 324.5 C 567.078 325.589 570.745 325.755 574.5 325 C 597.397 320.777 619.397 313.777 640.5 304 C 655.27 295.062 667.603 283.562 677.5 269.5 Z" stroke-linecap="round" />
</g>
<g transform="matrix(1 0 0 1 717.77 290.79)" id="b95Mj0uWEmnvT3LO-Hb2x"  >
<path style="stroke: none; stroke-width: 1; stroke-dasharray: none; stroke-linecap: butt; stroke-dashoffset: 0; stroke-linejoin: miter; stroke-miterlimit: 4; fill: rgb(222,69,28); fill-rule: evenodd; opacity: 1;" vector-effect="non-scaling-stroke"  transform=" translate(-703.75, -289.95)" d="M 756.5 244.5 C 760.177 288.705 743.843 323.205 707.5 348 C 698.812 352.752 689.812 356.752 680.5 360 C 672.881 361.429 665.215 361.762 657.5 361 C 654.014 357.861 651.681 354.027 650.5 349.5 C 656.091 341.396 661.924 333.396 668 325.5 C 674.977 311.925 679.644 297.592 682 282.5 C 682.412 272.285 683.746 262.285 686 252.5 C 686.5 242.839 686.666 233.172 686.5 223.5 C 686.34 221.801 686.506 220.134 687 218.5 C 687.915 219.328 688.581 220.328 689 221.5 C 690.206 226.531 691.54 231.531 693 236.5 C 693.667 250.167 693.667 263.833 693 277.5 C 691.515 293.118 690.682 308.785 690.5 324.5 C 704.326 322.252 716.66 316.752 727.5 308 C 745.363 290.577 755.03 269.41 756.5 244.5 Z" stroke-linecap="round" />
</g>
<g transform="matrix(1 0 0 1 833.96 333.84)" id="5i6InT-4X0lYXOWGe4zJI"  >
<path style="stroke: none; stroke-width: 1; stroke-dasharray: none; stroke-linecap: butt; stroke-dashoffset: 0; stroke-linejoin: miter; stroke-miterlimit: 4; fill: rgb(172,39,20); fill-rule: evenodd; opacity: 1;" vector-effect="non-scaling-stroke"  transform=" translate(-819.94, -333)" d="M 813.5 343.5 C 816.5 340.939 819.834 340.273 823.5 341.5 C 823.709 339.286 822.876 337.619 821 336.5 C 818.06 337.423 815.227 338.423 812.5 339.5 C 812.813 335.958 812.479 332.625 811.5 329.5 C 811.104 326.956 811.771 324.789 813.5 323 C 817.606 321.068 821.606 318.901 825.5 316.5 C 826.288 324.409 827.288 332.242 828.5 340 C 824.323 345.757 818.656 348.924 811.5 349.5 C 811.259 347.114 811.925 345.114 813.5 343.5 Z" stroke-linecap="round" />
</g>
<g transform="matrix(1 0 0 1 355.02 299.65)" id="M01agWfCtfr-JkhbxnjXG"  >
<path style="stroke: none; stroke-width: 1; stroke-dasharray: none; stroke-linecap: butt; stroke-dashoffset: 0; stroke-linejoin: miter; stroke-miterlimit: 4; fill: rgb(216,69,28); fill-rule: evenodd; opacity: 1;" vector-effect="non-scaling-stroke"  transform=" translate(-341, -298.81)" d="M 300.5 236.5 C 299.527 249.821 299.361 263.154 300 276.5 C 301.61 285.19 304.943 293.19 310 300.5 C 322.137 312.818 336.637 320.818 353.5 324.5 C 357.029 324.736 359.695 323.403 361.5 320.5 C 365.093 322.169 365.093 323.336 361.5 324 C 363.112 324.72 364.612 324.554 366 323.5 C 366.903 324.701 368.069 325.535 369.5 326 C 368.328 326.419 367.328 327.085 366.5 328 C 367.449 328.617 368.282 328.451 369 327.5 C 369.684 328.784 369.517 329.951 368.5 331 C 369.872 331.631 371.205 332.298 372.5 333 C 372.355 333.772 372.022 334.439 371.5 335 C 373.993 336.325 375.16 338.491 375 341.5 C 378.758 344.429 378.925 347.262 375.5 350 C 376.34 351.666 375.84 351.833 374 350.5 C 373.5 351 373 351.5 372.5 352 C 373.833 352.333 375.167 352.667 376.5 353 C 375.112 353.889 375.278 354.389 377 354.5 C 378.788 353.7 380.455 353.366 382 353.5 C 382.617 354.449 382.451 355.282 381.5 356 C 384.277 358.173 384.11 358.673 381 357.5 C 380.626 358.416 380.126 359.25 379.5 360 C 381.473 360.495 383.473 360.662 385.5 360.5 C 373.564 362.247 362.23 360.247 351.5 354.5 C 352.675 354.719 353.675 354.386 354.5 353.5 C 354.167 353.167 353.833 352.833 353.5 352.5 C 330.253 340.272 312.586 322.605 300.5 299.5 C 298.892 295.41 297.725 291.077 297 286.5 C 296.333 271.833 296.333 257.167 297 242.5 C 297.008 239.655 298.175 237.655 300.5 236.5 Z" stroke-linecap="round" />
</g>
<g transform="matrix(1 0 0 1 813.49 339.84)" id="Aanfk9bFWa12Xj2wSMENB"  >
<path style="stroke: none; stroke-width: 1; stroke-dasharray: none; stroke-linecap: butt; stroke-dashoffset: 0; stroke-linejoin: miter; stroke-miterlimit: 4; fill: rgb(177,49,31); fill-rule: evenodd; opacity: 1;" vector-effect="non-scaling-stroke"  transform=" translate(-799.47, -339)" d="M 804.5 327.5 C 806.045 328.23 806.878 329.563 807 331.5 C 807.499 335.486 807.666 339.486 807.5 343.5 C 802.167 345.833 796.833 348.167 791.5 350.5 C 791.173 345.456 791.506 340.456 792.5 335.5 C 796.91 333.306 800.91 330.639 804.5 327.5 Z" stroke-linecap="round" />
</g>
<g transform="matrix(1 0 0 1 831.48 337.34)" id="ed_iNA7-5xxQ-L4jUf8v7"  >
<path style="stroke: none; stroke-width: 1; stroke-dasharray: none; stroke-linecap: butt; stroke-dashoffset: 0; stroke-linejoin: miter; stroke-miterlimit: 4; fill: rgb(219,170,163); fill-rule: evenodd; opacity: 1;" vector-effect="non-scaling-stroke"  transform=" translate(-817.46, -336.5)" d="M 811.5 329.5 C 812.479 332.625 812.813 335.958 812.5 339.5 C 815.227 338.423 818.06 337.423 821 336.5 C 822.876 337.619 823.709 339.286 823.5 341.5 C 819.834 340.273 816.5 340.939 813.5 343.5 C 811.763 339.066 811.096 334.399 811.5 329.5 Z" stroke-linecap="round" />
</g>
<g transform="matrix(1 0 0 1 341.01 327.87)" id="SZzOd96oEt2z9tCBJvYOO"  >
<path style="stroke: none; stroke-width: 1; stroke-dasharray: none; stroke-linecap: butt; stroke-dashoffset: 0; stroke-linejoin: miter; stroke-miterlimit: 4; fill: rgb(241,77,28); fill-rule: evenodd; opacity: 1;" vector-effect="non-scaling-stroke"  transform=" translate(-326.99, -327.03)" d="M 300.5 299.5 C 312.586 322.605 330.253 340.272 353.5 352.5 C 353.833 352.833 354.167 353.167 354.5 353.5 C 353.675 354.386 352.675 354.719 351.5 354.5 C 327.658 344.989 310.325 328.656 299.5 305.5 C 299.36 303.876 300.027 302.71 301.5 302 C 300.748 301.329 300.414 300.496 300.5 299.5 Z" stroke-linecap="round" />
</g>
<g transform="matrix(1 0 0 1 389.88 320.87)" id="_HwsfWaDZ_14Q5tRjskB9"  >
<path style="stroke: none; stroke-width: 1; stroke-dasharray: none; stroke-linecap: butt; stroke-dashoffset: 0; stroke-linejoin: miter; stroke-miterlimit: 4; fill: rgb(224,66,26); fill-rule: evenodd; opacity: 1;" vector-effect="non-scaling-stroke"  transform=" translate(-375.86, -320.03)" d="M 364.5 279.5 C 367.2 299.953 374.033 318.953 385 336.5 C 389.092 340.422 392.926 344.422 396.5 348.5 C 397.608 350.695 397.441 352.695 396 354.5 C 393.079 357.604 389.579 359.604 385.5 360.5 C 383.473 360.662 381.473 360.495 379.5 360 C 380.126 359.25 380.626 358.416 381 357.5 C 384.11 358.673 384.277 358.173 381.5 356 C 382.451 355.282 382.617 354.449 382 353.5 C 380.455 353.366 378.788 353.7 377 354.5 C 375.278 354.389 375.112 353.889 376.5 353 C 375.167 352.667 373.833 352.333 372.5 352 C 373 351.5 373.5 351 374 350.5 C 375.84 351.833 376.34 351.666 375.5 350 C 378.925 347.262 378.758 344.429 375 341.5 C 375.16 338.491 373.993 336.325 371.5 335 C 372.022 334.439 372.355 333.772 372.5 333 C 371.205 332.298 369.872 331.631 368.5 331 C 369.517 329.951 369.684 328.784 369 327.5 C 368.282 328.451 367.449 328.617 366.5 328 C 367.328 327.085 368.328 326.419 369.5 326 C 368.069 325.535 366.903 324.701 366 323.5 C 364.612 324.554 363.112 324.72 361.5 324 C 365.093 323.336 365.093 322.169 361.5 320.5 C 358.274 308.368 355.941 296.035 354.5 283.5 C 355.461 285.265 355.795 287.265 355.5 289.5 C 357.144 289.286 358.644 289.62 360 290.5 C 360.46 288.286 359.793 287.619 358 288.5 C 357.217 286.681 357.717 285.348 359.5 284.5 C 359.833 285.167 360.167 285.833 360.5 286.5 C 361.192 285.975 361.692 285.308 362 284.5 C 362.423 285.956 363.256 286.456 364.5 286 C 364.216 284.044 364.216 281.877 364.5 279.5 Z" stroke-linecap="round" />
</g>
<g transform="matrix(1 0 0 1 539.55 305.15)" id="fyDN1sO0wytovyfM68ZRC"  >
<path style="stroke: none; stroke-width: 1; stroke-dasharray: none; stroke-linecap: butt; stroke-dashoffset: 0; stroke-linejoin: miter; stroke-miterlimit: 4; fill: rgb(62,204,19); fill-rule: evenodd; opacity: 1;" vector-effect="non-scaling-stroke"  transform=" translate(-525.53, -304.31)" d="M 685.5 223.5 C 685.833 223.5 686.167 223.5 686.5 223.5 C 686.666 233.172 686.5 242.839 686 252.5 C 683.746 262.285 682.412 272.285 682 282.5 C 679.644 297.592 674.977 311.925 668 325.5 C 661.924 333.396 656.091 341.396 650.5 349.5 C 640.233 358.306 629.233 366.139 617.5 373 C 615.482 373.505 613.482 374.005 611.5 374.5 C 608.807 374.428 606.14 374.095 603.5 373.5 C 575.883 382.033 547.55 385.867 518.5 385 C 496.204 381.983 473.87 379.316 451.5 377 C 441.784 374.261 432.117 371.427 422.5 368.5 C 412.973 362.975 404.306 356.308 396.5 348.5 C 392.926 344.422 389.092 340.422 385 336.5 C 374.033 318.953 367.2 299.953 364.5 279.5 C 364.5 278.5 364.5 277.5 364.5 276.5 C 365.75 276.423 366.583 275.756 367 274.5 C 371.887 281.218 377.054 287.884 382.5 294.5 C 385.757 302.192 391.423 307.692 399.5 311 C 420.764 329.798 444.43 344.798 470.5 356 C 479.286 358.946 488.286 361.113 497.5 362.5 C 496.339 357.158 493.673 352.658 489.5 349 C 489.833 348.667 490.167 348.333 490.5 348 C 489.642 346.43 488.975 344.763 488.5 343 C 488.676 330.889 488.676 318.723 488.5 306.5 C 488.232 304.901 488.566 303.568 489.5 302.5 C 486.886 321.013 490.053 338.346 499 354.5 C 507.766 368.368 520.266 374.034 536.5 371.5 C 546.626 366.377 553.959 358.71 558.5 348.5 C 558.869 350.441 559.536 352.275 560.5 354 C 559.551 354.617 558.718 354.451 558 353.5 C 556.128 354.824 555.295 356.324 555.5 358 C 557.584 358.478 559.417 359.311 561 360.5 C 595.377 351.493 623.877 333.327 646.5 306 C 653.648 300.85 660.148 295.017 666 288.5 C 670.861 282.776 674.694 276.443 677.5 269.5 C 678.711 266.074 680.211 262.741 682 259.5 C 683.085 247.437 684.252 235.437 685.5 223.5 Z" stroke-linecap="round" />
</g>
<g transform="matrix(1 0 0 1 454.02 329.34)" id="moO4lgTNX9rtRDmY9oVBC"  >
<path style="stroke: none; stroke-width: 1; stroke-dasharray: none; stroke-linecap: butt; stroke-dashoffset: 0; stroke-linejoin: miter; stroke-miterlimit: 4; fill: rgb(80,233,15); fill-rule: evenodd; opacity: 1;" vector-effect="non-scaling-stroke"  transform=" translate(-440, -328.5)" d="M 382.5 294.5 C 386.665 298.497 390.998 302.33 395.5 306 C 423.959 322.26 454.626 328.76 487.5 325.5 C 487.177 318.978 487.51 312.645 488.5 306.5 C 488.676 318.723 488.676 330.889 488.5 343 C 488.975 344.763 489.642 346.43 490.5 348 C 490.167 348.333 489.833 348.667 489.5 349 C 493.673 352.658 496.339 357.158 497.5 362.5 C 488.286 361.113 479.286 358.946 470.5 356 C 444.43 344.798 420.764 329.798 399.5 311 C 391.423 307.692 385.757 302.192 382.5 294.5 Z" stroke-linecap="round" />
</g>
<g transform="matrix(1 0 0 1 540.93 315.51)" id="68UTKDBJ-YtAlpvHuICXO"  >
<path style="stroke: none; stroke-width: 1; stroke-dasharray: none; stroke-linecap: butt; stroke-dashoffset: 0; stroke-linejoin: miter; stroke-miterlimit: 4; fill: rgb(237,36,4); fill-rule: evenodd; opacity: 1;" vector-effect="non-scaling-stroke"  transform=" translate(-526.91, -314.67)" d="M 520.5 277.5 C 527.821 276.407 534.321 278.074 540 282.5 C 542.563 290.448 545.23 298.448 548 306.5 C 549.131 319.975 546.464 332.642 540 344.5 C 530.824 355.044 521.824 354.71 513 343.5 C 509.578 338.655 507.245 333.322 506 327.5 C 505.188 316.794 505.522 306.127 507 295.5 C 508.435 290.843 510.435 286.51 513 282.5 C 515.273 280.372 517.773 278.705 520.5 277.5 Z" stroke-linecap="round" />
</g>
<g transform="matrix(1 0 0 1 541.2 320.74)" id="afcLEzAhCD8HTLXx6VoTu"  >
<path style="stroke: none; stroke-width: 1; stroke-dasharray: none; stroke-linecap: butt; stroke-dashoffset: 0; stroke-linejoin: miter; stroke-miterlimit: 4; fill: rgb(237,71,57); fill-rule: evenodd; opacity: 1;" vector-effect="non-scaling-stroke"  transform=" translate(-527.18, -319.9)" d="M 523.5 304.5 C 530.265 303.469 535.432 305.802 539 311.5 C 541.285 318.34 540.952 325.007 538 331.5 C 532.794 335.842 526.96 336.675 520.5 334 C 518.291 332.127 516.458 329.96 515 327.5 C 512.042 317.401 514.875 309.734 523.5 304.5 Z" stroke-linecap="round" />
</g>
<g transform="matrix(1 0 0 1 836.14 360.34)" id="-sFsugge4GDQVbKR6baBn"  >
<path style="stroke: none; stroke-width: 1; stroke-dasharray: none; stroke-linecap: butt; stroke-dashoffset: 0; stroke-linejoin: miter; stroke-miterlimit: 4; fill: rgb(167,39,17); fill-rule: evenodd; opacity: 1;" vector-effect="non-scaling-stroke"  transform=" translate(-822.12, -359.5)" d="M 827.5 347.5 C 829.045 348.23 829.878 349.563 830 351.5 C 830.667 356.167 830.667 360.833 830 365.5 C 825.123 368.182 819.957 370.182 814.5 371.5 C 813.693 364.846 813.526 358.18 814 351.5 C 819.542 354.165 824.042 352.832 827.5 347.5 Z" stroke-linecap="round" />
</g>
<g transform="matrix(1 0 0 1 808.57 369.34)" id="AO8YJtdpiC0BrX0fFFXPm"  >
<path style="stroke: none; stroke-width: 1; stroke-dasharray: none; stroke-linecap: butt; stroke-dashoffset: 0; stroke-linejoin: miter; stroke-miterlimit: 4; fill: rgb(157,29,7); fill-rule: evenodd; opacity: 1;" vector-effect="non-scaling-stroke"  transform=" translate(-794.55, -368.5)" d="M 804.5 369.5 C 803.504 369.414 802.671 369.748 802 370.5 C 801.163 373.365 800.33 376.198 799.5 379 C 794.647 381.258 789.981 383.758 785.5 386.5 C 784.182 383.742 783.515 380.576 783.5 377 C 783.667 373.833 783.833 370.667 784 367.5 C 788.153 366.007 792.32 364.674 796.5 363.5 C 796.5 362.167 796.5 360.833 796.5 359.5 C 795.5 359.5 794.5 359.5 793.5 359.5 C 793.714 357.856 793.38 356.356 792.5 355 C 796.806 353.177 801.14 351.677 805.5 350.5 C 805.791 356.923 805.458 363.256 804.5 369.5 Z" stroke-linecap="round" />
</g>
<g transform="matrix(1 0 0 1 809.08 379.83)" id="sd2Iofd41_H-kU1TmRARx"  >
<path style="stroke: none; stroke-width: 1; stroke-dasharray: none; stroke-linecap: butt; stroke-dashoffset: 0; stroke-linejoin: miter; stroke-miterlimit: 4; fill: rgb(158,61,52); fill-rule: evenodd; opacity: 1;" vector-effect="non-scaling-stroke"  transform=" translate(-795.06, -378.99)" d="M 804.5 369.5 C 804.82 372.898 804.487 376.232 803.5 379.5 C 798.117 382.717 792.617 385.717 787 388.5 C 785.97 388.164 785.47 387.497 785.5 386.5 C 789.981 383.758 794.647 381.258 799.5 379 C 800.33 376.198 801.163 373.365 802 370.5 C 802.671 369.748 803.504 369.414 804.5 369.5 Z" stroke-linecap="round" />
</g>
<g transform="matrix(1 0 0 1 531.02 381.34)" id="5QMGQSZkL7ocv2qyYR2-m"  >
<path style="stroke: none; stroke-width: 1; stroke-dasharray: none; stroke-linecap: butt; stroke-dashoffset: 0; stroke-linejoin: miter; stroke-miterlimit: 4; fill: rgb(53,184,15); fill-rule: evenodd; opacity: 1;" vector-effect="non-scaling-stroke"  transform=" translate(-517, -380.5)" d="M 422.5 368.5 C 432.117 371.427 441.784 374.261 451.5 377 C 473.87 379.316 496.204 381.983 518.5 385 C 547.55 385.867 575.883 382.033 603.5 373.5 C 606.14 374.095 608.807 374.428 611.5 374.5 C 597.827 382.262 583.161 387.596 567.5 390.5 C 562.52 391.676 557.52 391.676 552.5 390.5 C 548.244 390.642 544.077 391.309 540 392.5 C 519.426 392.421 498.259 391.754 476.5 390.5 C 463.77 386.778 451.104 382.611 438.5 378 C 432.938 375.059 427.605 371.892 422.5 368.5 Z" stroke-linecap="round" />
</g>
<g transform="matrix(1 0 0 1 508.05 398.84)" id="8ikDdAFFedCOrf_t7ww4n"  >
<path style="stroke: none; stroke-width: 1; stroke-dasharray: none; stroke-linecap: butt; stroke-dashoffset: 0; stroke-linejoin: miter; stroke-miterlimit: 4; fill: rgb(40,104,27); fill-rule: evenodd; opacity: 1;" vector-effect="non-scaling-stroke"  transform=" translate(-494.03, -398)" d="M 490.5 394.5 C 492.966 393.366 495.633 393.199 498.5 394 C 499.38 395.356 499.714 396.856 499.5 398.5 C 497.396 398.201 495.396 398.534 493.5 399.5 C 492.06 400.952 490.394 401.952 488.5 402.5 C 490.235 400.765 491.568 398.765 492.5 396.5 C 492.253 395.287 491.586 394.62 490.5 394.5 Z" stroke-linecap="round" />
</g>
<g transform="matrix(1 0 0 1 543.02 423.32)" id="IU_ThkEoEO6_H5F5dLI7o"  >
<path style="stroke: none; stroke-width: 1; stroke-dasharray: none; stroke-linecap: butt; stroke-dashoffset: 0; stroke-linejoin: miter; stroke-miterlimit: 4; fill: rgb(70,213,38); fill-rule: evenodd; opacity: 1;" vector-effect="non-scaling-stroke"  transform=" translate(-529, -422.48)" d="M 556.5 442.5 C 553.264 432.038 550.264 421.372 547.5 410.5 C 531.757 410.03 516.09 409.03 500.5 407.5 C 501.055 403.808 503.222 402.142 507 402.5 C 510.741 402.579 514.241 403.413 517.5 405 C 526.5 405.333 535.5 405.667 544.5 406 C 548.58 408.312 551.08 411.812 552 416.5 C 553.834 424.338 555.667 432.172 557.5 440 C 557.472 441.07 557.139 441.903 556.5 442.5 Z" stroke-linecap="round" />
</g>
<g transform="matrix(1 0 0 1 539.4 458.13)" id="hUdV2jf7To4j3omnRGICl"  >
<path style="stroke: none; stroke-width: 1; stroke-dasharray: none; stroke-linecap: butt; stroke-dashoffset: 0; stroke-linejoin: miter; stroke-miterlimit: 4; fill: rgb(115,247,65); fill-rule: evenodd; opacity: 1;" vector-effect="non-scaling-stroke"  transform=" translate(0, 0)" d="M -24.87701 -49.78989 C -9.287009999999999 -48.25989 6.379990000000003 -47.25989 22.12299 -46.78989 C 24.88699 -35.91789 27.88699 -25.25189 31.12299 -14.78989 C 33.61999 1.8231099999999998 33.59731 26.19775 31.62299 35.21011 C 29.648670000000003 44.22247 19.95829 42.96952 19.12299 45.71011 C 17.829990000000002 46.20011 7.945870000000001 48.81676 -9.849319999999999 49.48017 C -27.64451 50.14358 -25.93994 49.80471 -28.87701 47.84286 C -31.814079999999997 45.88101 -32.35576 45.11321 -32.87701 32.21011 C -33.39826 19.30701 -32.73401 -13.146889999999999 -31.37701 -35.78989 C -30.719009999999997 -38.574889999999996 -29.88601 -41.24089 -28.87701 -43.78989 C -28.144009999999998 -45.58389 -27.144009999999998 -47.25089 -25.87701 -48.78989 C -25.210009999999997 -48.78989 -24.87701 -49.12289 -24.87701 -49.78989 z" stroke-linecap="round" />
</g>
<g transform="matrix(1 0 0 1 643 411.54)" id="pXtc69CWm0OiArdHjbk5Q"  >
<path style="stroke: none; stroke-width: 1; stroke-dasharray: none; stroke-linecap: butt; stroke-dashoffset: 0; stroke-linejoin: miter; stroke-miterlimit: 4; fill: rgb(72,158,44); fill-rule: evenodd; opacity: 1;" vector-effect="non-scaling-stroke"  transform=" translate(-628.98, -410.7)" d="M 623.5 435.5 C 622.5 430.833 621.5 426.167 620.5 421.5 C 623.135 417.257 626.468 413.59 630.5 410.5 C 629.902 409.205 629.402 407.872 629 406.5 C 626.782 408.442 625.115 410.775 624 413.5 C 622.549 415.464 620.716 416.797 618.5 417.5 C 618.565 417.062 618.399 416.728 618 416.5 C 615.776 418.054 613.276 419.054 610.5 419.5 C 609.319 421.135 609.319 422.802 610.5 424.5 C 609.643 425.425 608.643 426.092 607.5 426.5 C 607.5 424.167 607.5 421.833 607.5 419.5 C 608.095 416.679 606.929 414.346 604 412.5 C 603.333 408.833 603.333 405.167 604 401.5 C 605.726 400.424 607.559 400.257 609.5 401 C 611.926 404.432 614.76 407.599 618 410.5 C 618.333 404.833 618.667 399.167 619 393.5 C 620.467 390.734 622.3 388.234 624.5 386 C 636.864 385.047 641.03 390.547 637 402.5 C 635.833 404.333 634.667 406.167 633.5 408 C 634.908 408.315 636.241 407.982 637.5 407 C 642.114 399.532 647.614 398.698 654 404.5 C 654.944 407.347 654.444 409.847 652.5 412 C 648.5 412.333 644.5 412.667 640.5 413 C 632.964 419.307 627.298 426.807 623.5 435.5 Z" stroke-linecap="round" />
</g>
<g transform="matrix(1 0 0 1 582.52 421.39)" id="D9pspYwHF58HRdWT1YnjR"  >
<path style="stroke: none; stroke-width: 1; stroke-dasharray: none; stroke-linecap: butt; stroke-dashoffset: 0; stroke-linejoin: miter; stroke-miterlimit: 4; fill: rgb(42,152,16); fill-rule: evenodd; opacity: 1;" vector-effect="non-scaling-stroke"  transform=" translate(-568.5, -420.55)" d="M 558.5 393.5 C 557.026 394.675 555.36 395.675 553.5 396.5 C 563.434 405.602 572.934 415.268 582 425.5 C 583.252 420.817 581.919 417.151 578 414.5 C 577.333 413.833 577.333 413.167 578 412.5 C 580.09 413.152 582.257 413.319 584.5 413 C 586.416 415.409 588.416 417.576 590.5 419.5 C 589.194 419.879 587.861 420.212 586.5 420.5 C 586.994 422.026 587.661 423.359 588.5 424.5 C 588.38 426.199 588.046 427.865 587.5 429.5 C 588.823 431.827 590.157 434.16 591.5 436.5 C 590.032 437.869 588.365 439.036 586.5 440 C 589.717 442.716 592.384 445.883 594.5 449.5 C 590.313 448.74 586.646 446.906 583.5 444 C 576.261 437.431 569.761 430.265 564 422.5 C 563.878 424.282 564.378 425.948 565.5 427.5 C 564.518 428.141 563.518 428.807 562.5 429.5 C 561.117 426.924 560.283 427.258 560 430.5 C 556.012 420.546 552.012 410.546 548 400.5 C 546.175 399.897 544.341 399.23 542.5 398.5 C 545.079 395.755 548.079 393.589 551.5 392 C 554.171 391.167 556.504 391.667 558.5 393.5 Z" stroke-linecap="round" />
</g>
<g transform="matrix(1 0 0 1 283.02 437.34)" id="Nb7QzUiv_HsfY6-fdMCnR"  >
<path style="stroke: none; stroke-width: 1; stroke-dasharray: none; stroke-linecap: butt; stroke-dashoffset: 0; stroke-linejoin: miter; stroke-miterlimit: 4; fill: rgb(254,171,25); fill-rule: evenodd; opacity: 1;" vector-effect="non-scaling-stroke"  transform=" translate(-269, -436.5)" d="M 261.5 415.5 C 264.732 418.413 267.399 421.913 269.5 426 C 275.392 425.907 281.225 425.074 287 423.5 C 287.833 423.833 288.667 424.167 289.5 424.5 C 285.583 428.245 282.25 432.412 279.5 437 C 281.207 440.913 283.54 444.413 286.5 447.5 C 285.167 447.833 283.833 448.167 282.5 448.5 C 278.892 447.352 275.225 446.852 271.5 447 C 268.667 450.5 265.833 454 263 457.5 C 261.409 452.976 260.409 448.309 260 443.5 C 259.167 442.667 258.333 441.833 257.5 441 C 254.279 440.389 251.279 439.222 248.5 437.5 C 251.722 434.595 255.389 432.595 259.5 431.5 C 259.887 426.126 260.554 420.793 261.5 415.5 Z" stroke-linecap="round" />
</g>
<g transform="matrix(1 0 0 1 638.02 414.84)" id="FkGxSE5fcEwKj302LabJB"  >
<path style="stroke: none; stroke-width: 1; stroke-dasharray: none; stroke-linecap: butt; stroke-dashoffset: 0; stroke-linejoin: miter; stroke-miterlimit: 4; fill: rgb(159,157,43); fill-rule: evenodd; opacity: 1;" vector-effect="non-scaling-stroke"  transform=" translate(-624, -414)" d="M 620.5 421.5 C 619.5 421.5 618.5 421.5 617.5 421.5 C 617.833 420.167 618.167 418.833 618.5 417.5 C 620.716 416.797 622.549 415.464 624 413.5 C 625.115 410.775 626.782 408.442 629 406.5 C 629.402 407.872 629.902 409.205 630.5 410.5 C 626.468 413.59 623.135 417.257 620.5 421.5 Z" stroke-linecap="round" />
</g>
<g transform="matrix(1 0 0 1 463.15 446.31)" id="ogMKjfqz9dmgig5uAYytr"  >
<path style="stroke: none; stroke-width: 1; stroke-dasharray: none; stroke-linecap: butt; stroke-dashoffset: 0; stroke-linejoin: miter; stroke-miterlimit: 4; fill: rgb(52,157,18); fill-rule: evenodd; opacity: 1;" vector-effect="non-scaling-stroke"  transform=" translate(0, 0)" d="M 39.37256 -42.96493 C 41.26656 -43.512930000000004 42.93256 -44.512930000000004 44.37256 -45.96493 C 46.26856 -46.930930000000004 48.26856 -47.26393 50.37256 -46.96493 C 49.44356 -46.149930000000005 48.44356 -45.31693 47.37256 -44.46493 C 49.78756 -42.99993 50.78756 -40.832930000000005 50.37256 -37.96493 C 47.11556 -38.13293 44.11556 -39.13293 41.37256 -40.96493 C 40.76556 -40.84093 40.43256 -40.50793 40.37256 -39.96493 C 38.48656 -39.103930000000005 36.65256 -38.103930000000005 34.87256 -36.96493 C 34.53956 -27.964930000000003 34.20556 -18.964930000000003 33.87256 -9.964930000000003 C 33.28156 -3.401930000000003 31.94856 2.9320699999999977 29.87256 9.035069999999997 C 29.14256 17.02507 27.14 52.89863 26.87 60.908629999999995 C 24.037 57.713629999999995 24.205560000000002 26.006069999999994 24.37256 21.535069999999997 C 25.06556 15.070069999999998 26.39856 8.737069999999997 28.37256 2.5350699999999975 C 28.12956 1.6330699999999974 27.795560000000002 0.8000699999999974 27.37256 0.03506999999999749 C 27.07456 -4.965930000000003 27.90756 -9.631930000000002 29.87256 -13.964930000000003 C 27.24456 -11.254930000000002 24.41156 -8.920930000000002 21.37256 -6.9649300000000025 C 17.97356 -5.076930000000003 14.973559999999999 -2.5769300000000026 12.37256 0.5350699999999975 C 5.20756 3.9710699999999974 -2.1254399999999993 4.804069999999998 -9.62744 3.0350699999999975 C -4.91244 0.6290699999999974 -1.2464399999999998 -2.870930000000002 1.37256 -7.4649300000000025 C -0.2534399999999999 -9.283930000000002 -2.25344 -10.616930000000004 -4.62744 -11.464930000000003 C -6.84144 -14.389930000000003 -9.17444 -17.223930000000003 -11.62744 -19.964930000000003 C -12.86044 -14.941930000000003 -14.526440000000001 -10.108930000000003 -16.62744 -5.4649300000000025 C -16.73644 -2.7529300000000023 -15.73644 -0.5869300000000024 -13.62744 1.0350699999999975 C -21.05444 -3.128930000000002 -25.55444 -9.461930000000002 -27.12744 -17.964930000000003 C -27.62644 -22.28593 -27.79344 -26.618930000000002 -27.62744 -30.964930000000003 C -33.30344 -30.798930000000002 -38.970439999999996 -30.965930000000004 -44.62744 -31.464930000000003 C -53.69644 -39.59593 -52.19644 -44.76193000000001 -40.12744 -46.96493 C -40.12344 -48.832930000000005 -40.62344 -50.66693 -41.62744 -52.46493 C -41.49744 -53.52393 -40.99744 -54.356930000000006 -40.12744 -54.96493 C -37.34044 -52.34093 -34.17344 -50.34093 -30.62744 -48.96493 C -29.89444 -52.63893 -29.22844 -56.305930000000004 -28.62744 -59.96493 C -23.64244 -62.033930000000005 -19.809440000000002 -60.70093 -17.12744 -55.96493 C -18.58444 -48.77093 -19.75144 -41.43793 -20.62744 -33.96493 C -16.04344 -33.25793 -12.37744 -34.75793 -9.62744 -38.46493 C -6.13444 -39.46893 -2.96844 -38.96893 -0.12744 -36.96493 C 0.70956 -31.948930000000004 -1.45744 -28.948930000000004 -6.62744 -27.964930000000003 C -7.64844 -27.462930000000004 -7.81544 -26.796930000000003 -7.12744 -25.964930000000003 C -4.25844 -22.760930000000002 -1.0924399999999999 -19.927930000000003 2.37256 -17.464930000000003 C 5.37256 -16.79793 8.37256 -16.79793 11.37256 -17.464930000000003 C 17.35556 -23.787930000000003 23.02256 -30.453930000000003 28.37256 -37.46493 C 32.06556 -39.311930000000004 35.73256 -41.14493 39.37256 -42.96493 z" stroke-linecap="round" />
</g>
<g transform="matrix(1 0 0 1 367.01 431.34)" id="4VGzbLbxcrxv1_68fQeme"  >
<path style="stroke: none; stroke-width: 1; stroke-dasharray: none; stroke-linecap: butt; stroke-dashoffset: 0; stroke-linejoin: miter; stroke-miterlimit: 4; fill: rgb(168,50,167); fill-rule: evenodd; opacity: 1;" vector-effect="non-scaling-stroke"  transform=" translate(-352.99, -430.5)" d="M 353.5 417.5 C 355.115 420.514 356.782 423.681 358.5 427 C 360.813 427.662 363.146 428.162 365.5 428.5 C 365.5 429.833 365.5 431.167 365.5 432.5 C 362.702 432.63 360.702 433.964 359.5 436.5 C 360.223 438.782 360.557 441.116 360.5 443.5 C 357.083 443.204 353.916 442.204 351 440.5 C 347.542 441.286 344.042 441.62 340.5 441.5 C 340.357 437.796 341.357 434.463 343.5 431.5 C 341.357 428.537 340.357 425.204 340.5 421.5 C 346.118 423.919 350.451 422.586 353.5 417.5 Z" stroke-linecap="round" />
</g>
<g transform="matrix(1 0 0 1 602.52 422.84)" id="yk1ZeOlJDIj7Qlqs71eDz"  >
<path style="stroke: none; stroke-width: 1; stroke-dasharray: none; stroke-linecap: butt; stroke-dashoffset: 0; stroke-linejoin: miter; stroke-miterlimit: 4; fill: rgb(161,213,161); fill-rule: evenodd; opacity: 1;" vector-effect="non-scaling-stroke"  transform=" translate(-588.5, -422)" d="M 590.5 419.5 C 590.5 421.167 590.5 422.833 590.5 424.5 C 589.833 424.5 589.167 424.5 588.5 424.5 C 587.661 423.359 586.994 422.026 586.5 420.5 C 587.861 420.212 589.194 419.879 590.5 419.5 Z" stroke-linecap="round" />
</g>
<g transform="matrix(1 0 0 1 230.02 438.34)" id="c4MfoRJFmXXzS3TDoSniE"  >
<path style="stroke: none; stroke-width: 1; stroke-dasharray: none; stroke-linecap: butt; stroke-dashoffset: 0; stroke-linejoin: miter; stroke-miterlimit: 4; fill: rgb(254,169,24); fill-rule: evenodd; opacity: 1;" vector-effect="non-scaling-stroke"  transform=" translate(-216, -437.5)" d="M 215.5 423.5 C 216.376 423.369 217.043 423.702 217.5 424.5 C 218.838 427.176 220.171 429.842 221.5 432.5 C 224.869 434.173 228.202 435.84 231.5 437.5 C 229.469 439.522 227.135 441.189 224.5 442.5 C 223.679 445.446 223.679 448.446 224.5 451.5 C 221.423 451.653 218.589 450.986 216 449.5 C 213.914 450.418 211.747 451.085 209.5 451.5 C 209.664 448.813 209.497 446.146 209 443.5 C 205.725 442.114 202.891 440.114 200.5 437.5 C 200.977 436.522 201.643 435.689 202.5 435 C 205.699 434.599 208.699 433.766 211.5 432.5 C 211.683 428.937 213.017 425.937 215.5 423.5 Z" stroke-linecap="round" />
</g>
<g transform="matrix(1 0 0 1 616.52 423.84)" id="V2QAKclQbOuWvKAiaZZD2"  >
<path style="stroke: none; stroke-width: 1; stroke-dasharray: none; stroke-linecap: butt; stroke-dashoffset: 0; stroke-linejoin: miter; stroke-miterlimit: 4; fill: rgb(108,130,139); fill-rule: evenodd; opacity: 1;" vector-effect="non-scaling-stroke"  transform=" translate(-602.5, -423)" d="M 607.5 419.5 C 607.5 421.833 607.5 424.167 607.5 426.5 C 606.833 426.5 606.167 426.5 605.5 426.5 C 602.833 426.5 600.167 426.5 597.5 426.5 C 599.292 425.691 601.292 425.191 603.5 425 C 604.488 422.833 605.821 421 607.5 419.5 Z" stroke-linecap="round" />
</g>
<g transform="matrix(1 0 0 1 610.52 431.34)" id="RG952hR7iMoS32UM-SzsJ"  >
<path style="stroke: none; stroke-width: 1; stroke-dasharray: none; stroke-linecap: butt; stroke-dashoffset: 0; stroke-linejoin: miter; stroke-miterlimit: 4; fill: rgb(46,141,34); fill-rule: evenodd; opacity: 1;" vector-effect="non-scaling-stroke"  transform=" translate(-596.5, -430.5)" d="M 588.5 424.5 C 589.167 424.5 589.833 424.5 590.5 424.5 C 592.279 426.344 594.612 427.01 597.5 426.5 C 600.167 426.5 602.833 426.5 605.5 426.5 C 602.228 431.771 597.561 435.104 591.5 436.5 C 590.157 434.16 588.823 431.827 587.5 429.5 C 588.046 427.865 588.38 426.199 588.5 424.5 Z" stroke-linecap="round" />
</g>
<g transform="matrix(1 0 0 1 157.27 444.84)" id="rq_p8qPerFYZ6uQcegvYl"  >
<path style="stroke: none; stroke-width: 1; stroke-dasharray: none; stroke-linecap: butt; stroke-dashoffset: 0; stroke-linejoin: miter; stroke-miterlimit: 4; fill: rgb(251,169,21); fill-rule: evenodd; opacity: 1;" vector-effect="non-scaling-stroke"  transform=" translate(-143.25, -444)" d="M 133.5 406.5 C 136.731 408.22 139.564 410.553 142 413.5 C 146.167 418.333 150.333 423.167 154.5 428 C 163.68 429.003 172.68 430.836 181.5 433.5 C 175.58 439.915 170.247 446.748 165.5 454 C 168.737 461.209 172.07 468.376 175.5 475.5 C 174.833 475.833 174.167 476.167 173.5 476.5 C 165.653 474.246 157.819 471.913 150 469.5 C 148.373 469.625 146.873 470.125 145.5 471 C 141.191 475.473 136.191 478.973 130.5 481.5 C 129.201 480.91 128.368 479.91 128 478.5 C 127.387 472.436 126.387 466.436 125 460.5 C 117.206 457.934 110.54 453.601 105 447.5 C 104.911 445.887 105.745 444.72 107.5 444 C 114.201 439.703 121.201 435.87 128.5 432.5 C 131.124 424.005 132.791 415.339 133.5 406.5 Z" stroke-linecap="round" />
</g>
<g transform="matrix(1 0 0 1 488.77 439.34)" id="yRCLgDwuQrJPbDjbiibBO"  >
<path style="stroke: none; stroke-width: 1; stroke-dasharray: none; stroke-linecap: butt; stroke-dashoffset: 0; stroke-linejoin: miter; stroke-miterlimit: 4; fill: rgb(141,160,179); fill-rule: evenodd; opacity: 1;" vector-effect="non-scaling-stroke"  transform=" translate(-474.75, -438.5)" d="M 476.5 445.5 C 474.243 443.271 472.243 440.938 470.5 438.5 C 473.539 436.544 476.372 434.21 479 431.5 C 477.035 435.833 476.202 440.499 476.5 445.5 Z" stroke-linecap="round" />
</g>
<g transform="matrix(1 0 0 1 748.52 450.84)" id="j-qdvcvpTe1vFiBot6dZb"  >
<path style="stroke: none; stroke-width: 1; stroke-dasharray: none; stroke-linecap: butt; stroke-dashoffset: 0; stroke-linejoin: miter; stroke-miterlimit: 4; fill: rgb(253,171,22); fill-rule: evenodd; opacity: 1;" vector-effect="non-scaling-stroke"  transform=" translate(-734.5, -450)" d="M 736.5 427.5 C 738.017 427.511 739.184 428.177 740 429.5 C 740.59 433.348 741.757 437.014 743.5 440.5 C 748.53 442.001 753.53 443.501 758.5 445 C 754.667 448.167 750.833 451.333 747 454.5 C 746.501 460.491 746.334 466.491 746.5 472.5 C 740.902 470.076 735.402 467.41 730 464.5 C 725.99 466.089 722.157 468.089 718.5 470.5 C 718.167 470 717.833 469.5 717.5 469 C 719.708 464.005 720.875 458.839 721 453.5 C 717.724 449.881 714.224 446.714 710.5 444 C 716.192 442.66 721.859 441.16 727.5 439.5 C 731.262 436.071 734.262 432.071 736.5 427.5 Z" stroke-linecap="round" />
</g>
<g transform="matrix(1 0 0 1 501.77 457.27)" id="Q5c4rxphads5ilv3iuGij"  >
<path style="stroke: none; stroke-width: 1; stroke-dasharray: none; stroke-linecap: butt; stroke-dashoffset: 0; stroke-linejoin: miter; stroke-miterlimit: 4; fill: rgb(83,204,21); fill-rule: evenodd; opacity: 1;" vector-effect="non-scaling-stroke"  transform=" translate(0, 0)" d="M 1.75 -50.93099 C 4.579000000000001 -48.45299 7.912 -47.45299 11.75 -47.93099 C 10.483 -46.39199 9.483 -44.72499 8.75 -42.93099 C 8.75 -43.93099 8.75 -44.93099 8.75 -45.93099 C 7.083 -45.93099 5.417 -45.93099 3.75 -45.93099 C 1.4769999999999999 -23.99099 -0.02300000000000013 -1.9909900000000036 -0.75 20.06901 C -1.232 24.719009999999997 -2.899 46.43223 -4.75 50.44923 C -7.369 50.71723 -9.369 51.38423 -11.75 50.44923 C -11.18 47.19923 -10.68 25.48501 -10.25 22.06901 C -9.98 14.059009999999999 -9.48 6.059009999999997 -8.75 -1.9309900000000013 C -6.6739999999999995 -8.033990000000001 -5.341 -14.36799 -4.75 -20.93099 C -4.417 -29.93099 -4.083 -38.93099 -3.75 -47.93099 C -1.97 -49.069990000000004 -0.13600000000000012 -50.069990000000004 1.75 -50.93099 z" stroke-linecap="round" />
</g>
<g transform="matrix(1 0 0 1 809.02 448.34)" id="5FVXa4g3xNN-oJblmT5z1"  >
<path style="stroke: none; stroke-width: 1; stroke-dasharray: none; stroke-linecap: butt; stroke-dashoffset: 0; stroke-linejoin: miter; stroke-miterlimit: 4; fill: rgb(254,172,29); fill-rule: evenodd; opacity: 1;" vector-effect="non-scaling-stroke"  transform=" translate(-795, -447.5)" d="M 792.5 433.5 C 796.012 434.005 798.345 436.005 799.5 439.5 C 802.428 440.484 805.428 440.817 808.5 440.5 C 807.121 443.741 805.455 446.907 803.5 450 C 804.897 453.408 805.397 456.908 805 460.5 C 802.589 458.422 799.922 456.755 797 455.5 C 793.592 457.76 790.092 459.76 786.5 461.5 C 786.666 457.486 786.499 453.486 786 449.5 C 784.028 448.695 782.528 447.361 781.5 445.5 C 784.083 443.235 786.916 441.235 790 439.5 C 790.938 437.512 791.772 435.512 792.5 433.5 Z" stroke-linecap="round" />
</g>
<g transform="matrix(1 0 0 1 455.52 437.84)" id="SpePGEmC67hC13yD9DUTe"  >
<path style="stroke: none; stroke-width: 1; stroke-dasharray: none; stroke-linecap: butt; stroke-dashoffset: 0; stroke-linejoin: miter; stroke-miterlimit: 4; fill: rgb(99,237,29); fill-rule: evenodd; opacity: 1;" vector-effect="non-scaling-stroke"  transform=" translate(-441.5, -437)" d="M 439.5 448.5 C 437.847 448.34 436.514 447.674 435.5 446.5 C 433.391 444.878 432.391 442.712 432.5 440 C 434.601 435.356 436.267 430.523 437.5 425.5 C 439.953 428.241 442.286 431.075 444.5 434 C 446.874 434.848 448.874 436.181 450.5 438 C 447.881 442.594 444.215 446.094 439.5 448.5 Z" stroke-linecap="round" />
</g>
<g transform="matrix(1 0 0 1 616.53 434.34)" id="8cXwsRURq1G7FpUitcVuI"  >
<path style="stroke: none; stroke-width: 1; stroke-dasharray: none; stroke-linecap: butt; stroke-dashoffset: 0; stroke-linejoin: miter; stroke-miterlimit: 4; fill: rgb(81,195,25); fill-rule: evenodd; opacity: 1;" vector-effect="non-scaling-stroke"  transform=" translate(-602.51, -433.5)" d="M 618.5 417.5 C 618.167 418.833 617.833 420.167 617.5 421.5 C 616.854 425.784 614.52 428.784 610.5 430.5 C 611.689 431.429 613.022 431.762 614.5 431.5 C 614.664 434.187 614.497 436.854 614 439.5 C 611.619 440.435 609.119 440.768 606.5 440.5 C 606.657 441.873 606.49 443.207 606 444.5 C 605.111 443.112 604.611 443.278 604.5 445 C 604.645 445.772 604.978 446.439 605.5 447 C 609.376 447.575 613.042 447.075 616.5 445.5 C 614.88 447.984 612.547 449.484 609.5 450 C 604.316 450.816 599.316 450.65 594.5 449.5 C 592.384 445.883 589.717 442.716 586.5 440 C 588.365 439.036 590.032 437.869 591.5 436.5 C 597.561 435.104 602.228 431.771 605.5 426.5 C 606.167 426.5 606.833 426.5 607.5 426.5 C 608.643 426.092 609.643 425.425 610.5 424.5 C 609.319 422.802 609.319 421.135 610.5 419.5 C 613.276 419.054 615.776 418.054 618 416.5 C 618.399 416.728 618.565 417.062 618.5 417.5 Z" stroke-linecap="round" />
</g>
<g transform="matrix(1 0 0 1 628.02 435.21)" id="KxLDxno7AXrh1TzNaLKMo"  >
<path style="stroke: none; stroke-width: 1; stroke-dasharray: none; stroke-linecap: butt; stroke-dashoffset: 0; stroke-linejoin: miter; stroke-miterlimit: 4; fill: rgb(86,220,17); fill-rule: evenodd; opacity: 1;" vector-effect="non-scaling-stroke"  transform=" translate(-614, -434.37)" d="M 617.5 421.5 C 618.5 421.5 619.5 421.5 620.5 421.5 C 621.5 426.167 622.5 430.833 623.5 435.5 C 623.13 440.249 620.797 443.582 616.5 445.5 C 613.042 447.075 609.376 447.575 605.5 447 C 604.978 446.439 604.645 445.772 604.5 445 C 604.611 443.278 605.111 443.112 606 444.5 C 606.49 443.207 606.657 441.873 606.5 440.5 C 609.119 440.768 611.619 440.435 614 439.5 C 614.497 436.854 614.664 434.187 614.5 431.5 C 613.022 431.762 611.689 431.429 610.5 430.5 C 614.52 428.784 616.854 425.784 617.5 421.5 Z" stroke-linecap="round" />
</g>
<g transform="matrix(1 0 0 1 890.98 454.83)" id="Rh6aSvp7vQUMDainHg4aL"  >
<path style="stroke: none; stroke-width: 1; stroke-dasharray: none; stroke-linecap: butt; stroke-dashoffset: 0; stroke-linejoin: miter; stroke-miterlimit: 4; fill: rgb(251,172,25); fill-rule: evenodd; opacity: 1;" vector-effect="non-scaling-stroke"  transform=" translate(-876.96, -453.99)" d="M 881.5 421.5 C 883.124 421.36 884.29 422.027 885 423.5 C 887.323 430.819 889.657 438.153 892 445.5 C 896.918 449.713 902.418 453.046 908.5 455.5 C 909.521 456.002 909.688 456.668 909 457.5 C 903.219 461.207 897.219 464.54 891 467.5 C 888.361 474.112 885.194 480.446 881.5 486.5 C 876.688 482.856 872.021 479.022 867.5 475 C 861.167 474.766 854.834 474.932 848.5 475.5 C 848.338 473.473 848.505 471.473 849 469.5 C 851.539 465.887 853.706 462.054 855.5 458 C 852.442 451.777 848.775 445.944 844.5 440.5 C 851.757 440.46 859.09 440.293 866.5 440 C 872.326 434.523 877.326 428.356 881.5 421.5 Z" stroke-linecap="round" />
</g>
<g transform="matrix(1 0 0 1 543.02 459.34)" id="m70dO6kO4izyAJcjXwXRV"  >
<path style="stroke: none; stroke-width: 1; stroke-dasharray: none; stroke-linecap: butt; stroke-dashoffset: 0; stroke-linejoin: miter; stroke-miterlimit: 4; fill: rgb(43,164,17); fill-rule: evenodd; opacity: 1;" vector-effect="non-scaling-stroke"  transform=" translate(0, 0)" d="M -52.5 -68 C -30.741 -66.746 -9.573999999999998 -66.079 11 -66 C 15.077 -67.191 19.244 -67.858 23.5 -68 C 28.52 -66.824 33.519999999999996 -66.824 38.5 -68 C 35.746 -66.554 32.746 -65.554 29.5 -65 C 27.504 -66.833 25.171 -67.333 22.5 -66.5 C 19.079 -64.911 16.079 -62.745 13.5 -60 C 15.341 -59.27 17.175 -58.603 19 -58 C 23.012 -47.954 27.012 -37.954 31 -28 C 31.283 -31.242 32.117 -31.576 33.5 -29 C 34.518 -29.693 35.518 -30.359 36.5 -31 C 39.32 -25.419 40.82 -19.419 41 -13 C 42.936 -8.508 44.436 -3.8420000000000005 45.5 1 C 44.517 4.798 44.183 8.798 44.5 13 C 44.167 13 43.62186 19.08125 44 28.49911 C 44.37814 37.91697 43.47424 27.52099 43.94666 32.975390000000004 C 44.05617 34.239720000000005 44.096160000000005 35.457730000000005 44 36.488020000000006 C 44.975 43.52702000000001 40.809 27.373000000000005 42.5 34.00000000000001 C 42.5 36.00000000000001 42.5 38.00000000000001 42.5 40.00000000000001 C 43.207 43.745000000000005 43.374 47.412000000000006 43 51.00000000000001 C 46.399 47.77100000000001 49.565 44.43800000000001 52.5 41.00000000000001 C 52.157 45.54100000000001 52.157 49.87400000000001 52.5 54.00000000000001 C 49.427 58.47200000000001 46.593 63.13900000000001 44 68 C 40.133 63.798 35.967 59.965 31.5 56.5 C 24.281 53.398 -34.02066000000001 48.45303 -15.634430000000002 48.23196 C 2.7517999999999994 48.01089 23.101979999999998 41.4938 25.5 38.5 C 27.89802 35.50621 27.727 35.829 28 34 C 30.163 17.28 29.997 0.6129999999999995 27.5 -16 C 28.139 -16.597 28.472 -17.43 28.5 -18.5 C 26.667 -26.328 24.834 -34.162 23 -42 C 22.08 -46.688 19.58 -50.188 15.5 -52.5 C 6.5 -52.833 -2.5 -53.167 -11.5 -53.5 C -14.759 -55.087 -18.259 -55.921 -22 -56 C -25.778 -56.358 -27.945 -54.692 -28.5 -51 C -28.5 -50.333 -28.833 -50 -29.5 -50 C -33.338 -49.522 -36.671 -50.522 -39.5 -53 C -39.44 -53.543 -39.107 -53.876 -38.5 -54 C -35.757 -52.168 -32.757 -51.168 -29.5 -51 C -29.085 -53.868 -30.085 -56.035 -32.5 -57.5 C -31.429 -58.352 -30.429 -59.185 -29.5 -60 C -29.286 -61.644 -29.62 -63.144 -30.5 -64.5 C -33.367 -65.301 -36.034 -65.134 -38.5 -64 C -43.38 -64.967 -48.046 -66.301 -52.5 -68 z" stroke-linecap="round" />
</g>
<g transform="matrix(1 0 0 1 409.02 470.34)" id="2atS3dEwDtYLskYXV8G-S"  >
<path style="stroke: none; stroke-width: 1; stroke-dasharray: none; stroke-linecap: butt; stroke-dashoffset: 0; stroke-linejoin: miter; stroke-miterlimit: 4; fill: rgb(254,171,24); fill-rule: evenodd; opacity: 1;" vector-effect="non-scaling-stroke"  transform=" translate(-395, -469.5)" d="M 394.5 448.5 C 396.601 452.61 398.434 456.944 400 461.5 C 404.342 465.069 408.508 468.735 412.5 472.5 C 411.779 477.054 409.112 479.221 404.5 479 C 401.117 482.269 398.617 486.103 397 490.5 C 394.938 488.099 393.271 485.433 392 482.5 C 387.288 478.282 382.454 474.282 377.5 470.5 C 382.184 468.659 386.351 465.992 390 462.5 C 392.116 458.04 393.616 453.373 394.5 448.5 Z" stroke-linecap="round" />
</g>
<g transform="matrix(1 0 0 1 326.02 479.31)" id="8jWNaRMa1Sb5qewMS3laP"  >
<path style="stroke: none; stroke-width: 1; stroke-dasharray: none; stroke-linecap: butt; stroke-dashoffset: 0; stroke-linejoin: miter; stroke-miterlimit: 4; fill: rgb(254,170,20); fill-rule: evenodd; opacity: 1;" vector-effect="non-scaling-stroke"  transform=" translate(-312, -478.47)" d="M 308.5 464.5 C 309.552 464.351 310.552 464.517 311.5 465 C 316.532 469.035 321.198 473.368 325.5 478 C 320.717 482.948 315.717 487.781 310.5 492.5 C 309.702 490.922 309.202 489.256 309 487.5 C 305.625 483.956 302.125 480.623 298.5 477.5 C 304.016 474.969 307.349 470.635 308.5 464.5 Z" stroke-linecap="round" />
</g>
<g transform="matrix(1 0 0 1 668.56 485.37)" id="xbwM1F2yrmxm2ElCJ3uaT"  >
<path style="stroke: none; stroke-width: 1; stroke-dasharray: none; stroke-linecap: butt; stroke-dashoffset: 0; stroke-linejoin: miter; stroke-miterlimit: 4; fill: rgb(253,173,26); fill-rule: evenodd; opacity: 1;" vector-effect="non-scaling-stroke"  transform=" translate(-654.54, -484.53)" d="M 665.5 468.5 C 666.11 469.391 666.443 470.391 666.5 471.5 C 665.21 474.192 666.043 476.192 669 477.5 C 672.565 485.421 670.065 489.755 661.5 490.5 C 660.409 494.797 659.409 499.13 658.5 503.5 C 655.13 501.815 651.797 500.149 648.5 498.5 C 646.813 498.76 645.313 499.427 644 500.5 C 643.687 497.405 644.187 494.405 645.5 491.5 C 642.357 490.19 640.024 488.023 638.5 485 C 639.439 483.056 640.773 481.389 642.5 480 C 646.363 478.819 649.863 476.986 653 474.5 C 653.743 465.115 657.909 463.115 665.5 468.5 Z" stroke-linecap="round" />
</g>
<g transform="matrix(1 0 0 1 691.98 469.34)" id="fuxq0-hUPLRXjcBnjBij5"  >
<path style="stroke: none; stroke-width: 1; stroke-dasharray: none; stroke-linecap: butt; stroke-dashoffset: 0; stroke-linejoin: miter; stroke-miterlimit: 4; fill: rgb(185,138,244); fill-rule: evenodd; opacity: 1;" vector-effect="non-scaling-stroke"  transform=" translate(-677.96, -468.5)" d="M 670.5 469.5 C 670.5 468.5 670.5 467.5 670.5 466.5 C 674.137 465.835 677.803 465.168 681.5 464.5 C 686.729 467.323 686.729 469.989 681.5 472.5 C 679.792 472.297 678.459 471.464 677.5 470 C 675.19 469.503 672.857 469.337 670.5 469.5 Z" stroke-linecap="round" />
</g>
<g transform="matrix(1 0 0 1 728.69 491.59)" id="VqGxBI6fGiXYFDWI854is"  >
<path style="stroke: none; stroke-width: 1; stroke-dasharray: none; stroke-linecap: butt; stroke-dashoffset: 0; stroke-linejoin: miter; stroke-miterlimit: 4; fill: rgb(254,178,26); fill-rule: evenodd; opacity: 1;" vector-effect="non-scaling-stroke"  transform=" translate(-714.67, -490.75)" d="M 710.5 480.5 C 720.953 478.813 725.786 483.146 725 493.5 C 719.143 503.263 712.477 503.929 705 495.5 C 703.087 488.97 704.92 483.97 710.5 480.5 Z" stroke-linecap="round" />
</g>
<g transform="matrix(1 0 0 1 591.44 491.34)" id="S54DgqOn8Fq90cOykLDm4"  >
<path style="stroke: none; stroke-width: 1; stroke-dasharray: none; stroke-linecap: butt; stroke-dashoffset: 0; stroke-linejoin: miter; stroke-miterlimit: 4; fill: rgb(129,178,111); fill-rule: evenodd; opacity: 1;" vector-effect="non-scaling-stroke"  transform=" translate(-577.42, -490.5)" d="M 572.5 471.5 C 572.833 471.5 573.167 471.5 573.5 471.5 C 576.374 475.259 578.208 479.593 579 484.5 C 581 485.167 582.333 486.5 583 488.5 C 583.758 492.357 583.258 496.023 581.5 499.5 C 578.565 502.938 575.399 506.271 572 509.5 C 572.374 505.912 572.207 502.245 571.5 498.5 C 572.41 500.019 573.243 501.685 574 503.5 C 576.368 501.316 577.035 498.649 576 495.5 C 575.76 493.148 574.927 491.148 573.5 489.5 C 573.167 483.5 572.833 477.5 572.5 471.5 Z" stroke-linecap="round" />
</g>
<g transform="matrix(1 0 0 1 503.79 459.53)" id="auIzYyCMQ5RDt-VMSIReW"  >
<path style="stroke: none; stroke-width: 1; stroke-dasharray: none; stroke-linecap: butt; stroke-dashoffset: 0; stroke-linejoin: miter; stroke-miterlimit: 4; fill: rgb(114,184,56); fill-rule: evenodd; opacity: 1;" vector-effect="non-scaling-stroke"  transform=" translate(0, 0)" d="M 6.72655 -45.18771 C 5.717549999999999 -42.63871 4.884549999999999 -39.972710000000006 4.22655 -37.18771 C 2.8695499999999994 -14.544710000000002 3.7833399999999995 48.197849999999995 6.72655 48.1877 C 9.66976 48.17755 -4.13552 48.1877 -7.13552 48.1877 C -5.28452 44.1707 -3.2554499999999997 22.46229 -2.7734499999999995 17.81229 C -2.0464499999999997 -4.247709999999998 -0.5464499999999997 -26.24771 1.7265500000000005 -48.187709999999996 C 3.3935500000000003 -48.187709999999996 5.059550000000001 -48.187709999999996 6.7265500000000005 -48.187709999999996 C 6.7265500000000005 -47.187709999999996 6.7265500000000005 -46.187709999999996 6.7265500000000005 -45.187709999999996 z" stroke-linecap="round" />
</g>
<g transform="matrix(1 0 0 1 193.02 486.28)" id="H7pLTriT5Mgate-DCIUl8"  >
<path style="stroke: none; stroke-width: 1; stroke-dasharray: none; stroke-linecap: butt; stroke-dashoffset: 0; stroke-linejoin: miter; stroke-miterlimit: 4; fill: rgb(176,131,228); fill-rule: evenodd; opacity: 1;" vector-effect="non-scaling-stroke"  transform=" translate(-179, -485.44)" d="M 190.5 484.5 C 183.005 485.451 175.339 486.118 167.5 486.5 C 174.923 484.745 182.589 484.079 190.5 484.5 Z" stroke-linecap="round" />
</g>
<g transform="matrix(1 0 0 1 129.97 593.13)" id="KDEyS2VNW2KXZlKJytjth"  >
<path style="stroke: rgb(255,255,255); stroke-width: 5; stroke-dasharray: none; stroke-linecap: butt; stroke-dashoffset: 0; stroke-linejoin: miter; stroke-miterlimit: 4; fill: rgb(121,48,211); fill-rule: evenodd; opacity: 1;" vector-effect="non-scaling-stroke"  transform=" translate(-184.41, -593.34)" d="M 297.5 522.5 C 288.512 533.487 277.512 541.821 264.5 547.5 C 248.703 548.604 233.037 550.604 217.5 553.5 C 222.193 580.515 227.026 607.515 232 634.5 C 234.03 647.437 234.697 660.437 234 673.5 C 229.467 690.025 218.634 699.525 201.5 702 C 181.774 705.87 166.274 699.704 155 683.5 C 151.037 674.095 149.537 664.262 150.5 654 C 152.22 621.863 152.887 589.697 152.5 557.5 C 140.793 558.244 129.127 559.41 117.5 561 C 109.167 561.667 100.833 561.667 92.5 561 C 70.909 553.798 65.0756 539.964 75 519.5 C 86.6049 506.779 100.772 498.279 117.5 494 C 133.95 490.027 150.616 487.527 167.5 486.5 C 175.339 486.118 183.005 485.451 190.5 484.5 C 218.633 482.503 246.633 483.67 274.5 488 C 282.712 490.887 289.879 495.387 296 501.5 C 298.731 508.303 299.231 515.303 297.5 522.5 Z" stroke-linecap="round" />
</g>
<g transform="matrix(1 0 0 1 613.74 604.12)" id="FgNJOe98VnNBC05hDQKUv"  >
<path style="stroke: rgb(255,255,255); stroke-width: 5; stroke-dasharray: none; stroke-linecap: butt; stroke-dashoffset: 0; stroke-linejoin: miter; stroke-miterlimit: 4; fill: rgb(206,42,7); fill-rule: evenodd; opacity: 1;" vector-effect="non-scaling-stroke"  transform=" translate(-835.49, -598.34)" d="M 742.5 682.5 C 769.187 659.747 780.353 630.747 776 595.5 C 774.239 577.222 767.239 561.222 755 547.5 C 748.603 541.595 742.103 535.929 735.5 530.5 C 738.512 517.301 746.512 508.134 759.5 503 C 775.486 497.24 791.986 494.74 809 495.5 C 845.025 493.892 877.192 504.058 905.5 526 C 935.455 555.098 942.955 589.265 928 628.5 C 915.723 652.11 897.557 669.61 873.5 681 C 858.135 688.079 842.135 693.413 825.5 697 C 807.723 701.522 789.723 702.522 771.5 700 C 759.916 697.214 750.25 691.381 742.5 682.5 Z" stroke-linecap="round" />
</g>
<g transform="matrix(1 0 0 1 460.43 614.29)" id="OaLG5P_IRTlAlxoVuMD8S"  >
<path style="stroke: rgb(255,255,255); stroke-width: 5; stroke-dasharray: none; stroke-linecap: butt; stroke-dashoffset: 0; stroke-linejoin: miter; stroke-miterlimit: 4; fill: rgb(248,168,18); fill-rule: evenodd; opacity: 1;" vector-effect="non-scaling-stroke"  transform=" translate(-682.18, -608.51)" d="M 735.5 530.5 C 742.103 535.929 748.603 541.595 755 547.5 C 767.239 561.222 774.239 577.222 776 595.5 C 780.353 630.747 769.187 659.747 742.5 682.5 C 714.731 700.445 684.398 705.945 651.5 699 C 623.397 692.204 602.23 676.371 588 651.5 C 587.51 650.207 587.343 648.873 587.5 647.5 C 594.148 631.927 597.482 615.594 597.5 598.5 C 598.169 586.117 595.835 574.45 590.5 563.5 C 590.336 560.813 590.503 558.146 591 555.5 C 599.752 542.412 611.252 532.579 625.5 526 C 635.295 520.969 645.628 517.635 656.5 516 C 677.324 513.745 697.658 515.745 717.5 522 C 723.412 525.124 729.412 527.957 735.5 530.5 Z" stroke-linecap="round" />
</g>
<g transform="matrix(1 0 0 1 619.76 603.24)" id="RcCknODRIuQVezqI40Mtt"  >
<path style="stroke: none; stroke-width: 1; stroke-dasharray: none; stroke-linecap: butt; stroke-dashoffset: 0; stroke-linejoin: miter; stroke-miterlimit: 4; fill: rgb(253,249,249); fill-rule: evenodd; opacity: 1;" vector-effect="non-scaling-stroke"  transform=" translate(-841.51, -597.46)" d="M 822.5 572.5 C 830.958 572.119 839.291 572.953 847.5 575 C 865.502 587.552 866.169 601.218 849.5 616 C 843.547 619.497 837.213 621.663 830.5 622.5 C 829.262 610.661 827.429 598.994 825 587.5 C 823.833 583.333 822.667 579.167 821.5 575 C 821.743 574.098 822.077 573.265 822.5 572.5 Z" stroke-linecap="round" />
</g>
<g transform="matrix(1 0 0 1 456.38 615.88)" id="e7shTV6USRmQx0I_PZ5zE"  >
<path style="stroke: none; stroke-width: 1; stroke-dasharray: none; stroke-linecap: butt; stroke-dashoffset: 0; stroke-linejoin: miter; stroke-miterlimit: 4; fill: rgb(253,252,250); fill-rule: evenodd; opacity: 1;" vector-effect="non-scaling-stroke"  transform=" translate(-678.13, -610.1)" d="M 672.5 588.5 C 682.48 587.627 691.313 590.293 699 596.5 C 703.667 605.5 703.667 614.5 699 623.5 C 695.64 627.933 691.14 630.433 685.5 631 C 662.456 634.946 651.956 625.446 654 602.5 C 657.762 594.562 663.928 589.895 672.5 588.5 Z" stroke-linecap="round" />
</g>
<g transform="matrix(1 0 0 1 758.77 593.31)" id="FYJQY0ldnrhJFnSEycpIm"  >
<path style="stroke: rgb(255,255,255); stroke-width: 5; stroke-dasharray: none; stroke-linecap: butt; stroke-dashoffset: 0; stroke-linejoin: miter; stroke-miterlimit: 4; fill: rgb(135,111,253); fill-rule: evenodd; opacity: 1;" vector-effect="non-scaling-stroke"  transform=" translate(-501.56, -600.27)" d="M 590.5 563.5 C 595.835 574.45 598.169 586.117 597.5 598.5 C 597.482 615.594 594.148 631.927 587.5 647.5 C 569.295 675.296 543.628 692.13 510.5 698 C 489.697 701.625 469.03 700.958 448.5 696 C 437.077 691.791 425.744 687.291 414.5 682.5 C 444.229 657.859 455.062 626.526 447 588.5 C 444.085 574.608 438.085 562.275 429 551.5 C 421.866 543.522 414.032 536.522 405.5 530.5 C 414.532 517.817 426.532 509.317 441.5 505 C 486.079 493.914 526.412 502.248 562.5 530 C 573.204 540.188 582.537 551.355 590.5 563.5 Z" stroke-linecap="round" />
</g>
<g transform="matrix(1 0 0 1 939.39 601.55)" id="9H1YgkjJ4T9dAh1x0J1sq"  >
<path style="stroke: rgb(255,255,255); stroke-width: 5; stroke-dasharray: none; stroke-linecap: butt; stroke-dashoffset: 0; stroke-linejoin: miter; stroke-miterlimit: 4; fill: rgb(248,168,18); fill-rule: evenodd; opacity: 1;" vector-effect="non-scaling-stroke"  transform=" translate(-682.18, -608.51)" d="M 735.5 530.5 C 742.103 535.929 748.603 541.595 755 547.5 C 767.239 561.222 774.239 577.222 776 595.5 C 780.353 630.747 769.187 659.747 742.5 682.5 C 714.731 700.445 684.398 705.945 651.5 699 C 623.397 692.204 602.23 676.371 588 651.5 C 587.51 650.207 587.343 648.873 587.5 647.5 C 594.148 631.927 597.482 615.594 597.5 598.5 C 598.169 586.117 595.835 574.45 590.5 563.5 C 590.336 560.813 590.503 558.146 591 555.5 C 599.752 542.412 611.252 532.579 625.5 526 C 635.295 520.969 645.628 517.635 656.5 516 C 677.324 513.745 697.658 515.745 717.5 522 C 723.412 525.124 729.412 527.957 735.5 530.5 Z" stroke-linecap="round" />
</g>
<g transform="matrix(1 0 0 1 757.28 598.93)" id="ULK76eMCYTqMxkXBYTBYh"  >
<path style="stroke: none; stroke-width: 1; stroke-dasharray: none; stroke-linecap: butt; stroke-dashoffset: 0; stroke-linejoin: miter; stroke-miterlimit: 4; fill: rgb(251,251,253); fill-rule: evenodd; opacity: 1;" vector-effect="non-scaling-stroke"  transform=" translate(-500.07, -605.89)" d="M 491.5 581.5 C 501.081 580.756 510.081 582.589 518.5 587 C 528.242 597.749 529.076 609.249 521 621.5 C 510.501 631.158 498.668 632.991 485.5 627 C 470.394 613.88 469.727 600.213 483.5 586 C 486.354 584.603 489.02 583.103 491.5 581.5 Z" stroke-linecap="round" />
</g>
<g transform="matrix(1 0 0 1 935.34 603.14)" id="l6K5xvRCao3pvCknGDri7"  >
<path style="stroke: none; stroke-width: 1; stroke-dasharray: none; stroke-linecap: butt; stroke-dashoffset: 0; stroke-linejoin: miter; stroke-miterlimit: 4; fill: rgb(253,252,250); fill-rule: evenodd; opacity: 1;" vector-effect="non-scaling-stroke"  transform=" translate(-678.13, -610.1)" d="M 672.5 588.5 C 682.48 587.627 691.313 590.293 699 596.5 C 703.667 605.5 703.667 614.5 699 623.5 C 695.64 627.933 691.14 630.433 685.5 631 C 662.456 634.946 651.956 625.446 654 602.5 C 657.762 594.562 663.928 589.895 672.5 588.5 Z" stroke-linecap="round" />
</g>
<g transform="matrix(1 0 0 1 295.6 607.49)" id="gL2I1-13TKu_k0NMOKq6K"  >
<path style="stroke: rgb(255,255,255); stroke-width: 5; stroke-dasharray: none; stroke-linecap: butt; stroke-dashoffset: 0; stroke-linejoin: miter; stroke-miterlimit: 4; fill: rgb(205,42,7); fill-rule: evenodd; opacity: 1;" vector-effect="non-scaling-stroke"  transform=" translate(-350.04, -607.7)" d="M 405.5 530.5 C 414.032 536.522 421.866 543.522 429 551.5 C 438.085 562.275 444.085 574.608 447 588.5 C 455.062 626.526 444.229 657.859 414.5 682.5 C 384.573 701.212 352.24 706.379 317.5 698 C 277.1 684.443 254.933 656.276 251 613.5 C 250.333 603.5 250.333 593.5 251 583.5 C 252.741 574.682 255.074 566.015 258 557.5 C 259.928 553.968 262.095 550.634 264.5 547.5 C 277.512 541.821 288.512 533.487 297.5 522.5 C 304.882 518.314 312.882 515.814 321.5 515 C 351.426 510.673 379.426 515.84 405.5 530.5 Z" stroke-linecap="round" />
</g>
<g transform="matrix(1 0 0 1 293.62 610.23)" id="-E237Yl8Stop7knt2OH-J"  >
<path style="stroke: none; stroke-width: 1; stroke-dasharray: none; stroke-linecap: butt; stroke-dashoffset: 0; stroke-linejoin: miter; stroke-miterlimit: 4; fill: rgb(253,250,250); fill-rule: evenodd; opacity: 1;" vector-effect="non-scaling-stroke"  transform=" translate(-348.06, -610.44)" d="M 341.5 588.5 C 354.998 586.711 365.498 591.378 373 602.5 C 376.17 617.338 370.67 627.171 356.5 632 C 347.067 633.879 338.4 632.212 330.5 627 C 322.462 619.346 320.295 610.179 324 599.5 C 328.646 593.611 334.48 589.945 341.5 588.5 Z" stroke-linecap="round" />
</g>
<g transform="matrix(1 0 0 1 595.17 477.68)" id="p2OkvcVxuWen7VVBT1xLa"  >
<path style="stroke: none; stroke-width: 1; stroke-dasharray: none; stroke-linecap: butt; stroke-dashoffset: 0; stroke-linejoin: miter; stroke-miterlimit: 4; fill: rgb(127,220,47); fill-rule: evenodd; opacity: 1;" vector-effect="non-scaling-stroke"  transform=" translate(0, 0)" d="M -7.59269 -17.64945 C -0.9996900000000002 -10.81145 3.83331 -2.8114500000000024 6.90731 6.350549999999998 C 9.47031 17.52655 10.25023 8.988669999999999 2.6872299999999996 17.14667 C 2.3442299999999996 13.020669999999999 0.5643099999999994 20.70009 0.9073099999999996 16.15909 C 2.66531 12.682089999999999 1.6653099999999996 15.20755 0.9073099999999996 11.350549999999998 C 0.24030999999999958 9.350549999999998 -1.0926900000000004 8.017549999999998 -3.09269 7.350549999999998 C -3.88469 2.4435499999999983 -5.7186900000000005 -1.8904500000000013 -8.592690000000001 -5.649450000000002 C -8.909690000000001 -9.851450000000002 -8.575690000000002 -13.851450000000002 -7.592690000000001 -17.64945 z" stroke-linecap="round" />
</g>
</svg>
